<svg xmlns="http://www.w3.org/2000/svg" width="103.3" height="105" viewBox="35 33.3 103.3 105" enable-background="new 35 33.3 103.3 105"><path fill="#455E7C" d="M86.7 34.2C58.1 34.2 35 57.3 35 85.8s23.1 51.7 51.7 51.7 51.7-23.1 51.7-51.7-23.2-51.6-51.7-51.6zm16.8 47.7c-.6.2-2.1 0-3.2.8-.2 2.9-1.4 5.9-3.5 9-2.5 3-4.8 6-6.9 9l-.1 1.8c1.8.6 2.4 1.4 2.5 2.2-1.5.4-3.2.6-5.2.6h-1.3c-2 0-3.7-.2-5.2-.6.1-.9.6-1.7 2.5-2.2l-.1-1.8c-2.1-3-4.4-6-6.9-9-2.1-3-3.3-6.1-3.5-9-1-.7-2.5-.6-3.2-.8-.8-.2-.5-2 .2-2.1.5-.1 1.5-.2 3.2-.2.1-.5.2-.9.4-1.4 1.7-.9 4.1-1.4 6.9-1.8.3-3.3.1-5.9-1-7.2-.5-.3-1.4-.2-2.2-.1-.7-.5-1.1-1.2-1.2-2.1 2.6-.9 6.5-1.1 10.7-1.1 4.2.1 8.2.2 10.7 1.1-.1.9-.5 1.5-1.2 2.1-.9-.1-1.7-.1-2.2.1-1.1 1.4-1.4 3.9-1 7.2 2.9.3 5.2.9 6.9 1.8.2.5.3.9.4 1.4 1.7 0 2.7.1 3.2.2.7.2 1 2 .3 2.1z"/><path fill="#FFFFFB" d="M62.5 76.7c0-.1.1-.2.1-.2.1-.1.1-.2.1-.3.1-.1.1-.2.1-.3.1-.1.1-.2.1-.3 0-.1.1-.1.1-.1 0-.1.1-.1.1-.1.1-.2.1-.3.1-.3L60.7 74s-.1.1-.1.3c0 .1-.1.1-.1.1 0 .1-.1.1-.1.2-.1.1-.1.2-.2.3 0 0-.1.1-.1.2-.1.1-.1.2-.1.3-.1.1-.1.2-.1.2l.1.1 2.5 1zM63.2 74.8c.1-.1.1-.2.2-.2.1-.2.2-.3.3-.6.1-.1.1-.2.2-.3.1-.1.1-.2.1-.3l.1-.2-2.3-1.3s-.1.1-.2.3c-.1.1-.1.2-.2.3-.1.1-.1.2-.2.3-.1.2-.2.5-.3.6-.1.1-.1.2-.1.2 0 .1-.1.1-.1.1l2.5 1.1zM58.1 72.4s0-.1.1-.1c0-.1.1-.1.1-.2.1-.2.2-.5.3-.7.1-.1.1-.2.2-.3.1-.1.1-.2.2-.3.1-.2.2-.3.2-.3l-2.3-1.3s-.1.1-.2.3c-.1.1-.1.2-.2.3-.1.1-.1.3-.2.4-.2.3-.3.6-.4.7-.1.1-.1.2-.1.2l-.1.1 2.4 1.2zM55.4 71.2s0-.1.1-.1c.1-.1.1-.2.1-.2.1-.2.2-.5.4-.7.1-.1.1-.3.2-.4.1-.1.1-.2.2-.3.1-.2.2-.3.2-.3l-2.3-1.3s-.1.2-.2.3c-.1.1-.1.2-.2.4-.1.1-.2.3-.2.5-.2.3-.3.6-.4.8-.1.1-.1.2-.1.3l-.2-.1 2.4 1.1zM52.9 69.9s0-.1.1-.1c.1-.1.1-.2.1-.3.1-.2.2-.5.4-.8.1-.2.2-.3.2-.5.1-.1.2-.3.2-.4.1-.2.2-.3.2-.3l-2.3-1.3-.2.4c-.1.1-.1.2-.2.4s-.2.3-.2.5c-.2.3-.3.6-.5.9-.1.1-.1.2-.1.3l-.1.1 2.4 1.1zM50.3 68.7s0-.1.1-.1.1-.2.1-.3c.1-.2.3-.6.5-.9.1-.2.2-.3.2-.5.1-.2.2-.3.2-.4l.2-.4-2.3-1.3-.2.4c-.1.1-.2.3-.2.5-.1.2-.2.3-.3.5-.2.3-.3.7-.5 1-.1.1-.1.2-.2.3l-.1.1 2.5 1.1zM47.6 67.5s0-.1.1-.1.1-.2.2-.3c.1-.3.3-.6.5-1 .1-.2.2-.3.3-.5.1-.2.2-.3.2-.5l.2-.4-2.3-1.3s-.1.2-.2.5c-.1.1-.2.3-.2.5-.1.2-.2.3-.3.5-.2.3-.3.7-.5 1-.1.1-.1.2-.2.3l-.1.1 2.3 1.2zM64.2 73l.2-.2c.1-.1.1-.2.2-.2.1-.1.1-.2.2-.3.1-.2.2-.4.3-.5.1-.2.2-.2.2-.2L63 70.1s-.1.1-.2.3c-.1.2-.2.4-.4.6-.1.1-.1.2-.2.3-.1.1-.1.2-.2.3-.1.2-.2.3-.2.3l2.4 1.1zM65.3 71.4l.2-.2c.1-.1.1-.2.2-.2.1-.1.1-.2.2-.3.1-.2.3-.3.4-.5l.2-.2-2.1-1.7-.2.2c-.1.2-.3.3-.4.6-.1.1-.2.2-.2.3-.1.1-.1.2-.2.3-.1.2-.2.3-.2.3l2.1 1.4zM62.8 69.8s.1-.1.2-.3c.1-.1.1-.2.2-.3.1-.1.2-.2.2-.3.2-.2.3-.4.4-.6.1-.2.2-.2.2-.2l-2-1.7s-.1.1-.2.3c-.1.2-.3.4-.5.6-.1.1-.2.2-.2.3-.1.1-.2.2-.2.3-.1.2-.2.3-.2.3l2.1 1.6zM60.5 68.1s.1-.1.2-.3c.1-.1.1-.2.2-.3.1-.1.2-.2.2-.3.2-.2.3-.5.5-.6.1-.2.2-.3.2-.3l-2.1-1.7s-.1.1-.2.3c-.1.2-.3.4-.5.7l-.3.3c-.1.1-.2.2-.2.3-.1.2-.2.3-.2.3l2.2 1.6zM58.1 66.5s.1-.1.2-.3c.1-.1.2-.2.2-.3l.3-.3c.2-.2.3-.5.5-.7.2-.2.2-.3.2-.3L57.4 63l-.3.3c-.2.2-.3.5-.6.7-.1.1-.2.3-.3.4-.1.1-.2.2-.2.3-.1.2-.2.3-.2.3l2.3 1.5zM55.7 64.9s.1-.1.2-.3c.1-.1.2-.2.2-.3.1-.1.2-.3.3-.4.2-.3.4-.5.6-.7l.3-.3-2-1.9-.3.3c-.2.2-.4.5-.6.8-.1.2-.2.3-.3.4-.1.1-.2.3-.3.4-.2.2-.2.3-.2.3l2.1 1.7zM53.4 63.3s.1-.2.2-.3c.1-.1.2-.2.3-.4.1-.1.2-.3.3-.5.2-.3.5-.6.6-.8l.3-.3-2.1-1.7s-.1.2-.3.4c-.2.2-.4.5-.6.9-.1.2-.2.3-.3.5-.1.2-.2.3-.3.4-.2.2-.3.4-.3.4l2.2 1.4zM43.7 69.6s0-.1.1-.1c.1-.1.1-.2.1-.3.1-.2.1-.3.2-.5s.2-.4.2-.6c.1-.2.2-.4.2-.6.1-.1.1-.2.1-.2.1-.1.1-.2.1-.2.1-.3.2-.5.2-.5l-2.4-1.1s-.1.2-.2.5c-.1.1-.1.2-.1.2-.1.1-.1.2-.1.3-.1.2-.2.4-.2.6-.1.2-.2.4-.2.6-.1.2-.2.3-.2.5-.1.2-.1.3-.1.3l-.1.1 2.4 1zM45 66.3s0-.1.1-.1c.1-.1.1-.2.2-.3.1-.3.3-.6.5-1 .1-.2.2-.3.3-.5.1-.2.2-.3.2-.5.2-.3.2-.5.2-.5l-2.3-1.3s-.1.2-.3.5c-.1.2-.2.3-.3.5l-.3.6c-.2.4-.4.8-.5 1.1-.1.2-.1.3-.2.3l-.1.1 2.5 1.1zM46.7 63.1s.1-.2.3-.5c.1-.1.2-.3.3-.5.1-.2.2-.3.3-.5.2-.3.5-.7.6-1s.3-.5.3-.5l-2.2-1.5s-.1.2-.3.5c-.2.3-.4.6-.6 1l-.3.6c-.1.2-.2.3-.3.5-.2.3-.3.5-.3.5l2.2 1.4zM46.4 58.6l2.2 1.5s.1-.2.3-.4c.1-.1.2-.3.3-.5.1-.2.2-.3.3-.5.2-.3.5-.7.7-.9.2-.2.3-.4.3-.4l-2.1-1.7s-.1.2-.3.4c-.2.3-.5.6-.7 1-.1.2-.2.3-.4.5-.1.2-.2.3-.3.5-.2.3-.3.5-.3.5zM60.9 84.5V83.6c0-.2.1-.5.1-.6V82.7l-2.6-.3V82.7c0 .2-.1.5-.1.7 0 .1 0 .2-.1.4v.6h2.7zM61.1 82.5s0-.1.1-.3c0-.1 0-.2.1-.3 0-.1.1-.2.1-.3.1-.2.1-.5.1-.6 0-.1 0-.2.1-.2v-.1l-2.6-.5v.1c0 .1 0 .1-.1.2-.1.2-.1.5-.1.7 0 .1-.1.2-.1.3 0 .1-.1.2-.1.3 0 .2-.1.3-.1.3l2.6.4zM55.3 81.8s0-.1.1-.3c0-.1 0-.2.1-.3 0-.1.1-.3.1-.4.1-.3.1-.6.1-.7 0-.1.1-.2.1-.2v-.1l-2.6-.5v.1c0 .1-.1.2-.1.3-.1.2-.1.5-.2.9 0 .2-.1.3-.1.5 0 .1-.1.3-.1.4-.1.2-.1.4-.1.4l2.7-.1zM52.5 81.5s0-.2.1-.4c0-.1.1-.2.1-.4 0-.1.1-.3.1-.5.1-.3.1-.6.2-.9 0-.1.1-.2.1-.3v-.1l-2.6-.5v.1c0 .1-.1.2-.1.3-.1.2-.1.6-.2.9 0 .2-.1.3-.1.5s-.1.3-.1.4c-.1.2-.1.4-.1.4l2.6.5zM49.6 81.1s0-.2.1-.4c0-.1.1-.3.1-.4 0-.2.1-.3.1-.5.1-.3.1-.7.2-.9 0-.1.1-.2.1-.3v-.1l-2.7-.5v.1s-.1.2-.1.3c-.1.3-.1.6-.2 1 0 .2-.1.3-.1.5s-.1.3-.1.5c-.1.3-.1.5-.1.5l2.7.2zM46.8 80.8s0-.2.1-.5c0-.1.1-.3.1-.5s.1-.3.1-.5c.1-.3.1-.7.2-1 0-.1.1-.2.1-.3v-.1l-2.6-.5v.1s-.1.2-.1.3c-.1.3-.1.7-.2 1-.1.2-.1.4-.1.6-.1.2-.1.3-.1.5-.1.3-.1.5-.1.5l2.6.4zM43.9 80.4s0-.2.1-.5c0-.2.1-.3.1-.5s.1-.3.1-.6c.1-.4.1-.7.2-1 0-.1.1-.3.1-.3v-.1l-2.6-.5v.1c0 .1-.1.2-.1.3-.1.3-.1.7-.2 1.1-.1.2-.1.4-.1.6s-.1.3-.1.5c-.1.4-.1.6-.1.6l2.6.3zM61.3 80.6s0-.1.1-.3v-.1c0-.1 0-.1.1-.2 0-.1.1-.2.1-.3 0-.1.1-.2.1-.3s.1-.2.1-.3.1-.2.1-.2v-.1l-2.7-.8c0 .1-.1.1-.1.2s-.1.2-.1.3c-.1.1-.1.2-.1.3-.1.1-.1.2-.1.3 0 .1 0 .1-.1.2 0 .1 0 .1-.1.2-.1.2-.1.3-.1.3l2.8.8zM61.9 78.6s.1-.1.1-.3c.1-.2.1-.4.2-.6.1-.2.2-.5.2-.6.1-.2.1-.3.1-.3l-2.5-.9s-.1.1-.1.3c-.1.2-.2.4-.2.7-.1.2-.2.5-.2.7-.1.2-.1.3-.1.3l2.5.7zM59.1 77.8s.1-.1.1-.3c.1-.2.1-.4.2-.7.1-.2.2-.5.2-.7.1-.2.1-.3.1-.3l-2.6-.9s-.1.1-.1.3c-.1.2-.2.5-.2.7-.1.3-.2.5-.2.7-.1.2-.1.3-.1.3l2.6.9zM56.3 77s.1-.1.1-.3c.1-.2.2-.5.2-.7.1-.3.2-.5.2-.7.1-.2.1-.3.1-.3l-2.4-1s-.1.2-.1.3c-.1.2-.2.5-.3.8s-.2.6-.2.8c-.1.2-.1.3-.1.3l2.5.8zM53.5 76.2s.1-.2.1-.3c.1-.2.2-.5.2-.8.1-.3.2-.6.3-.8.1-.2.1-.3.1-.3l-2.4-1-.2.4c-.1.2-.2.6-.3.9l-.3.9v.3l2.5.7zM50.8 75.4s.1-.2.1-.4c.1-.2.2-.6.3-.9l.3-.9.2-.4-2.5-.9-.2.4-.3.9c-.1.3-.2.7-.3.9-.1.3-.1.5-.1.5l2.5.8zM48 74.6s.1-.2.1-.5.2-.6.3-1c.1-.3.2-.7.3-.9l.2-.4-2.4-.8s-.1.2-.2.5-.2.6-.3 1c-.1.3-.2.7-.3 1-.1.3-.1.5-.1.5l2.4.6zM40.7 83.6v-.5c0-.2 0-.3.1-.5 0-.2.1-.4.1-.6.1-.4.1-.8.1-1.1 0-.2.1-.3.1-.3v-.1l-2.7-.5v.2c0 .1 0 .2-.1.4-.1.3-.1.7-.1 1.2 0 .2-.1.5-.1.6 0 .2 0 .4-.1.6 0 .3-.1.5-.1.5l2.8.1zM41.1 80s0-.2.1-.5c0-.2.1-.3.1-.5.1-.2.1-.4.1-.6.1-.4.1-.8.2-1.1 0-.2.1-.3.1-.3 0-.1.1-.1.1-.1l-2.8-.6s0 .1-.1.2c0 .1-.1.2-.1.4-.1.3-.1.7-.2 1.2-.1.2-.1.5-.1.6-.1.2-.1.4-.1.6-.1.3-.1.5-.1.5l2.8.2zM41.7 76.5s.1-.2.1-.5c0-.1.1-.2.1-.2 0-.1.1-.2.1-.3.1-.2.1-.4.1-.6.1-.2.1-.4.2-.6.1-.2.1-.3.1-.5.1-.2.1-.3.1-.3 0-.1.1-.1.1-.1l-2.5-.7s0 .1-.1.2c0 .1-.1.2-.1.4-.1.2-.1.3-.1.5-.1.2-.1.4-.2.6-.1.2-.1.4-.2.6 0 .1-.1.2-.1.3s-.1.2-.1.3c-.1.3-.1.5-.1.5l2.6.4zM42.5 73s.1-.2.2-.5.2-.7.3-1.1c.1-.4.3-.8.3-1.1.1-.3.2-.5.2-.5l-2.4-.8s-.1.2-.2.5-.2.7-.4 1.1c-.1.4-.3.9-.3 1.1-.1.3-.2.5-.2.5l2.5.8z"/><path fill="none" d="M60.5 84.6l-22-.8"/><path fill="#FFFFFB" d="M72.4 64.3c.1-.1.2-.1.2-.2.1-.1.2-.1.2-.2.1-.1.2-.1.3-.2l.6-.3.2-.1-1.3-2.3s-.1.1-.3.2l-.6.3c-.1.1-.2.1-.3.2-.1.1-.2.1-.3.2-.1.1-.2.1-.2.1l-.1.1 1.6 2.2zM74.1 63.3c.1-.1.2-.1.2-.2.1-.1.2-.1.3-.1.1-.1.2-.1.3-.2.1-.1.2-.1.3-.2.1-.1.2-.1.3-.1.1-.1.1-.1.2-.1s.1-.1.1-.1L74.7 60s-.1 0-.1.1c-.1 0-.1.1-.2.1-.1.1-.2.1-.3.1-.1.1-.2.1-.3.2-.1.1-.2.1-.3.2-.1.1-.2.1-.3.2-.1.1-.2.1-.2.1-.1 0-.1.1-.1.1l1.2 2.2zM71.3 58.2s.1 0 0 0c.1-.1.2-.1.3-.2.1-.1.2-.1.3-.2.1-.1.2-.1.3-.2.1-.1.2-.1.3-.2.1-.1.2-.1.3-.2.1-.1.2-.1.2-.1.1 0 .1-.1.1-.1L72 54.6s-.1 0-.1.1c.1.3 0 .3 0 .3-.1.1-.2.1-.3.2-.1.1-.3.1-.4.2-.1.1-.3.1-.4.2-.1.1-.2.1-.3.2-.1.1-.2.1-.2.1-.2.1-.3.1-.3.1l1.3 2.2zM69.9 55.8s.1 0 .1-.1c.1-.1.2-.1.2-.1.1-.1.2-.1.3-.2.1-.1.3-.1.4-.2.1-.1.3-.1.4-.2.1-.1.2-.1.3-.2.1-.1.2-.1.2-.1l.1-.1-.9-2.4s-.1 0-.1.1c-.1.1-.2.1-.3.1-.1.1-.2.1-.4.2-.1.1-.3.2-.5.2-.2.1-.3.2-.5.2-.1.1-.3.1-.4.2-.1.1-.2.1-.3.1l-.1.1 1.5 2.4zM68.5 53.2s.1 0 .1-.1c.1-.1.2-.1.3-.2.1-.1.2-.1.4-.2.1-.1.3-.2.5-.2s.3-.2.5-.2c.1-.1.3-.1.4-.2.1-.1.2-.1.3-.1l-1-2.4s-.1 0-.1.1-.2.1-.3.1c-.1.1-.3.1-.4.2-.2.1-.3.2-.5.2-.2.1-.3.2-.5.2-.2.1-.3.2-.4.2-.1.1-.2.1-.3.2l-.1.1 1.1 2.3zM67.1 50.7s.1 0 .1-.1c.1-.1.2-.1.3-.2.1-.1.3-.1.4-.2.2-.1.3-.2.5-.2.2-.1.3-.2.5-.2.2-.1.3-.1.4-.2.1-.1.2-.1.3-.1l.1-.1-1.1-2.4s-.1 0-.1.1c-.1.1-.2.1-.3.2-.1.1-.3.1-.5.2s-.3.2-.5.2c-.2.1-.3.2-.5.2-.2.1-.3.2-.5.2-.1.1-.2.1-.3.2l-.1.1 1.3 2.3zM65.8 48.2s.1 0 .1-.1c.1-.1.2-.1.3-.2.1-.1.3-.2.5-.2.2-.1.3-.2.5-.3.2-.1.3-.2.5-.2.2-.1.3-.2.5-.2.1-.1.2-.1.3-.2l.1-.1-1.1-2.4s-.1 0-.1.1c-.1.1-.2.1-.3.2-.1.1-.3.2-.5.2-.2.1-.3.2-.5.3-.2.1-.3.2-.5.3-.2.1-.3.2-.5.2-.1.1-.2.1-.3.2l-.1.1 1.1 2.3zM75.9 62.4s.1-.1.3-.1c.2-.1.3-.2.6-.2.1 0 .1-.1.2-.1s.1-.1.2-.1c.1-.1.2-.1.3-.1.1 0 .1-.1.1-.1.1 0 .1 0 .1-.1h.1l-.9-2.5s-.1 0-.1.1c0 0-.1 0-.1.1-.1 0-.1.1-.1.1-.1.1-.2.1-.3.1-.1 0-.1.1-.2.1s-.1.1-.2.1c-.2.1-.5.2-.6.3-.3-.1-.5 0-.5 0l1.1 2.4zM77.8 61.6s.1-.1.3-.1c.2-.1.4-.1.6-.2.2-.1.5-.1.6-.2.2-.1.3-.1.3-.1l-.7-2.5s-.1.1-.3.1c-.2.1-.4.1-.7.2-.2.1-.5.2-.7.2-.2.1-.3.1-.3.1l.9 2.5zM76.8 58.9s.1-.1.3-.1c.2-.1.4-.1.7-.2.2-.1.5-.2.7-.2.2-.1.3-.1.3-.1l-.7-2.5s-.1.1-.3.1c-.2 0-.5.1-.8.2-.3.1-.5.2-.7.2-.2.1-.3.1-.3.1l.8 2.5zM75.8 56.2s.1-.1.3-.1c.2-.1.5-.2.7-.2.3-.1.5-.2.7-.2s.3-.1.3-.1l-.5-2.6s-.2.1-.3.1c-.2.1-.5.2-.8.2-.3.1-.6.2-.8.3-.2.1-.3.1-.3.1l.7 2.5zM74.8 53.5s.2-.1.3-.1c.2-.1.5-.2.8-.3.3-.1.6-.2.8-.2s.3-.1.3-.1l-.7-2.5s-.2.1-.4.1-.6.2-.9.3l-.9.3-.4.1 1.1 2.4zM73.9 50.8s.2-.1.4-.1c.2-.1.6-.2.9-.3l.9-.3c.2-.1.4-.1.4-.1l-.7-2.5s-.2.1-.5.1-.6.2-1 .3-.7.2-.9.3l-.4.2.9 2.4zM72.8 48.1l.4-.2c.2-.1.6-.2.9-.3.3-.1.7-.2 1-.3s.5-.1.5-.1l-.7-2.5s-.2.1-.5.1c-.3.1-.6.2-1 .3-.3.1-.7.2-1 .3s-.5.2-.5.2l.9 2.5zM61.3 47.6s.1 0 .1-.1c.1-.1.2-.1.3-.2.1-.1.3-.2.5-.3.2-.1.3-.2.5-.3.3-.2.7-.4 1-.6.3-.2.5-.2.5-.2l-1.3-2.3s-.2.1-.5.3-.7.4-1 .6l-.6.3c-.2.1-.3.2-.5.3-.1.1-.2.2-.3.2l-.1.1 1.4 2.2zM64.3 45.7s.1 0 .1-.1c.1-.1.2-.1.3-.2.1-.1.3-.2.5-.2.2-.1.3-.2.5-.3.2-.1.3-.2.5-.3.2-.1.3-.2.5-.2.1-.1.2-.1.3-.2l.1-.1-1.1-2.4s-.1 0-.1.1c-.1.1-.2.1-.3.2-.2.1-.3.2-.5.2l-.6.3-.6.3s-.3.2-.5.3c-.2.1-.3.1-.3.2s-.1.1-.1.1l1.3 2.3zM67.5 44s.2-.1.5-.2.7-.3 1-.5c.1-.1.2-.1.3-.1.1-.1.2-.1.3-.1.2-.1.3-.1.5-.2.1 0 .1-.1.2-.1s.1-.1.2-.1l.1-.1-.9-2.5s-.1 0-.1.1c-.1 0-.1.1-.2.1s-.1.1-.2.1c-.2.1-.3.1-.5.2-.1.1-.2.1-.3.1-.1.1-.2.1-.3.1-.4.2-.8.3-1.1.5-.3.1-.5.2-.5.2l1 2.5zM70 40.2l.9 2.5s.2-.1.5-.2.7-.2 1.1-.3c.4-.1.8-.2 1.1-.3.3-.1.5-.1.5-.1l-.7-2.5s-.2.1-.5.2-.7.2-1.1.3-.9.3-1.1.4c-.5-.1-.7 0-.7 0zM66.5 69.7c.1-.1.1-.2.2-.2.1-.1.2-.3.4-.5l.2-.2.1-.1.1-.1.2-.2-2-1.8-.2.2-.1.1-.1.1c-.1.1-.2.2-.2.3-.2.2-.3.4-.5.5l-.2.2h-.1l2.2 1.7zM67.8 68.2c.1-.1.1-.2.2-.2l.5-.5.2-.2.2-.2.2-.2-1.8-2-.2.2c-.1.1-.2.1-.2.2l-.3.3-.5.5c-.1.1-.2.1-.2.1l-.1.1 2 1.9zM63.6 64.3l.2-.2.6-.6.3-.3c.1-.1.2-.2.3-.2l.2-.2-1.8-2-.3.3-.3.3-.3.3-.6.6-.2.2-.1.1 2 1.7zM61.5 62.3c.1-.1.2-.2.2-.3l.6-.6.3-.3.3-.3.3-.3-1.8-1.8-.3.3-.3.3-.3.3-.6.6-.2.2-.1.1 1.9 1.8zM59.3 60.4s0-.1 0 0l.3-.3.6-.6.3-.3.3-.3.3-.3-1.8-2-.3.3-.3.3c-.1.1-.2.2-.4.3-.3.2-.5.5-.7.7l-.2.2-.1.1 2 1.9zM57.3 58.4l.1-.1.2-.2.7-.7c.1-.1.2-.2.4-.3l.3-.3.3-.3-1.8-2-.3.3-.3.3-.4.4c-.3.3-.5.6-.7.7l-.2.2c-.1.1-.2.1-.2.1l1.9 1.9zM55.1 56.4l.1-.1c.1-.1.1-.2.2-.2l.7-.7.4-.4.3-.3.3-.3-1.8-2s-.2.1-.4.3c-.1.1-.2.2-.4.3l-.4.4-.8.8-.3.3-.1.1 2.2 1.8zM69.2 66.8l.2-.2.2-.2c.1-.1.2-.2.3-.2l.1-.1.1-.1c.1-.1.2-.1.2-.2.1-.1.1-.1.2-.1l.1-.1-1.6-2-.1.1-.2.2c-.1.1-.2.1-.2.2-.1-.1-.2 0-.2 0-.1.1-.1.1-.2.1-.1.1-.2.2-.3.2l-.2.2-.2.2 1.8 2zM70.8 65.5l.2-.2c.1-.1.3-.2.5-.4.2-.1.4-.3.5-.3.2-.1.2-.2.2-.2l-1.5-2.2s-.1.1-.3.2c-.2.1-.3.2-.6.4-.2.2-.4.3-.6.4-.2.1-.2.2-.2.2l1.8 2.1zM69 63.2l.2-.2c.2-.1.3-.3.6-.4.2-.2.4-.3.6-.4.2-.1.3-.2.3-.2l-1.5-2.2s-.1.1-.3.2c-.2.1-.4.3-.6.5-.2.2-.5.3-.6.5-.2.1-.3.2-.3.2l1.6 2zM67.2 61s.1-.1.3-.2c.2-.1.4-.3.6-.5.2-.2.5-.3.6-.5.2-.1.3-.2.3-.2l-1.5-2.2s-.1.1-.3.2c-.2.1-.5.3-.7.5s-.5.3-.7.5c-.2.1-.3.2-.3.2l1.7 2.2zM65.4 58.7s.1-.1.3-.2c.2-.1.5-.3.7-.5.2-.2.5-.3.7-.5.2-.1.3-.2.3-.2L66 55s-.1.1-.3.2c-.2.2-.5.3-.8.6-.3.2-.5.4-.7.6-.2.2-.3.2-.3.2l1.5 2.1zM63.6 56.4s.1-.1.3-.2c.2-.2.5-.3.7-.6.3-.2.6-.4.7-.5.2-.1.3-.2.3-.2l-1.5-2.2-.4.2c-.2.2-.5.3-.8.6s-.6.4-.8.6-.1.3-.1.3l1.6 2zM61.9 54.2l.3-.3c.2-.2.5-.4.8-.6.3-.2.6-.4.8-.6s.4-.2.4-.2l-1.5-2.2s-.2.1-.4.3c-.2.2-.6.4-.9.6-.3.2-.6.5-.9.6-.2.2-.4.3-.4.3l1.8 2.1zM50.7 57.1l.1-.1c.1-.1.1-.2.2-.3.2-.2.5-.6.7-.9.1-.2.3-.3.4-.5l.2-.2.2-.2c.2-.2.3-.4.3-.4l-2-1.8s-.2.2-.3.4l-.2.2c-.1.1-.1.2-.2.2-.1.2-.3.3-.4.5-.3.3-.6.7-.7.9-.1.1-.2.2-.2.3l-.1.1 2 1.8zM53.1 54.4l.1-.1.3-.3.8-.8c.2-.2.3-.3.5-.4.1-.1.3-.2.4-.3.2-.2.4-.3.4-.3l-1.8-2-.4.4c-.1.1-.3.2-.4.4l-.5.5-.9.9-.3.3-.1.1 1.9 1.6zM55.6 51.9s.2-.1.4-.3c.1-.1.2-.2.4-.3.2-.1.3-.3.5-.4.1-.1.2-.1.2-.2.1-.1.2-.1.2-.2.2-.1.3-.2.4-.3.1-.2.3-.2.3-.3l.1-.1-1.7-2.1-.1.1c-.1.1-.2.2-.3.2-.1.1-.3.2-.5.3-.1.1-.2.1-.2.2-.1.1-.2.1-.2.2-.2.1-.3.3-.5.4-.2.1-.3.3-.4.3-.2.2-.4.3-.4.3l1.8 2.2zM58.4 49.6s.2-.1.4-.3c.2-.2.6-.5.9-.7.3-.2.7-.5.9-.6.2-.2.4-.3.4-.3l-1.5-2.2s-.2.1-.5.3c-.3.2-.6.5-1 .7-.3.3-.7.5-1 .7-.3.2-.5.3-.5.3l1.9 2.1z"/><path fill="none" d="M66.1 69.6L48.8 55.9"/><path fill="#FFFFFB" d="M87.6 60.1H88.5c.2 0 .5.1.6.1H89.4l.3-2.6H89.4c-.2 0-.5-.1-.7-.1-.1 0-.2 0-.4-.1h-.6l-.1 2.7zM89.6 60.3s.1 0 .3.1c.1 0 .2 0 .3.1.1 0 .2.1.3.1.2.1.5.1.6.1.1 0 .2 0 .2.1h.1l.5-2.6h-.1s-.1 0-.2-.1c-.2-.1-.5-.1-.7-.1-.1 0-.2-.1-.3-.1-.1 0-.2-.1-.3-.1-.2 0-.3-.1-.3-.1l-.4 2.6zM90.3 54.6s.1 0 .3.1c.1 0 .2 0 .3.1.1 0 .3.1.4.1.3.1.6.1.7.1.1 0 .2.1.2.1h.1l.5-2.6h-.1c-.1 0-.2-.1-.3-.1-.2-.1-.5-.1-.9-.2-.2 0-.3-.1-.5-.1-.1 0-.3-.1-.4-.1h.1l-.4 2.6zM90.7 51.7s.2 0 .4.1c.1 0 .2.1.4.1.1 0 .3.1.5.1.3.1.6.1.9.2.1 0 .2.1.3.1h.1l.5-2.6h-.1s-.2-.1-.3-.1c-.2-.1-.6-.1-.9-.2-.2 0-.3-.1-.5-.1s-.3-.1-.4-.1c-.2-.1-.4-.1-.4-.1l-.5 2.6zM91.1 48.9s.2 0 .4.1c.1 0 .3.1.4.1.2 0 .3.1.5.1.3.1.7.1.9.2.1 0 .2.1.3.1h.1l.5-2.6h-.1s-.2-.1-.3-.1c-.3-.1-.6-.1-1-.2-.2 0-.3-.1-.5-.1s-.3-.1-.5-.1c-.3-.1-.5-.1-.5-.1l-.2 2.6zM91.4 46.1s.2 0 .5.1c.1 0 .3.1.5.1s.3.1.5.1c.3.1.7.1 1 .2.1 0 .2.1.3.1h.1l.5-2.6h-.1s-.2-.1-.3-.1c-.3-.1-.7-.1-1-.2-.2-.1-.4-.1-.6-.1-.2-.1-.3-.1-.5-.1-.3-.1-.5-.1-.5-.1l-.4 2.6zM91.8 43.2s.2 0 .5.1c.2 0 .3.1.5.1s.3.1.6.1c.4.1.7.1 1 .2.1 0 .3.1.3.1h.1l.5-2.6h-.1c-.1 0-.2-.1-.3-.1-.3-.1-.7-.1-1.1-.2-.2-.1-.4-.1-.6-.1-.2-.1-.3-.1-.5-.1-.3-.1-.5-.1-.5-.1l-.4 2.6zM91.7 60.6s.1 0 .3.1h.1c.1 0 .1 0 .2.1.1 0 .2.1.3.1.1 0 .2.1.3.1s.2.1.3.1.2.1.2.1h.1l.7-2.5h-.1c-.1 0-.1-.1-.2-.1s-.2-.1-.3-.1c-.1-.1-.2-.1-.3-.1-.1-.1-.2-.1-.3-.1-.1 0-.1 0-.2-.1-.1 0-.1 0-.2-.1-.2-.1-.3-.1-.3-.1l-.6 2.6zM93.6 61.1s.1.1.3.1c.2.1.4.1.6.2.2.1.5.2.6.2.2.1.3.1.3.1l.9-2.5s-.1-.1-.3-.1c-.2-.1-.4-.2-.7-.2-.2-.1-.5-.2-.7-.2-.2-.1-.3-.1-.3-.1l-.7 2.5zM94.4 58.3s.1.1.3.1c.2.1.4.1.7.2.2.1.5.2.7.2.2.1.3.1.3.1l.9-2.5s-.1-.1-.3-.1c-.2-.1-.5-.2-.7-.2-.3-.1-.5-.2-.7-.2-.2-.1-.3-.1-.3-.1l-.9 2.5zM95.2 55.6s.1.1.3.1c.2.1.5.2.7.2.3.1.5.2.7.2.2.1.3.1.3.1l.9-2.5s-.2-.1-.3-.1c-.2-.1-.5-.2-.8-.3-.3-.1-.6-.2-.8-.2-.2-.1-.3-.1-.3-.1l-.7 2.6zM96 52.8s.2.1.3.1c.2.1.5.2.8.2.3.1.6.2.8.3.2.1.3.1.3.1l.9-2.5-.4-.2c-.2-.1-.6-.2-.9-.3l-.9-.3c-.2-.1-.4-.1-.4-.1l-.5 2.7zM96.8 50.1s.2.1.4.1c.2.1.6.2.9.3l.9.3.4.2.9-2.5-.4-.2c-.2-.1-.6-.2-.9-.3-.3-.1-.7-.2-.9-.3-.3-.1-.5-.1-.5-.1l-.8 2.5zM97.6 47.3s.2.1.5.1c.3.1.6.2 1 .3.3.1.7.2.9.3l.4.2.9-2.5s-.2-.1-.5-.2-.6-.2-1-.3c-.3-.1-.7-.2-1-.3-.3-.1-.5-.1-.5-.1l-.7 2.5zM88.6 40h.5c.2 0 .3 0 .5.1.2 0 .4.1.6.1.4.1.8.1 1.1.1.2 0 .3.1.3.1h.1l.3-2.6h-.2s-.2 0-.4-.1c-.3-.1-.7-.1-1.2-.1-.2 0-.5-.1-.6-.1-.2 0-.4 0-.6-.1-.3 0-.5-.1-.5-.1l.1 2.7zM92.1 40.3s.2 0 .5.1c.2 0 .3.1.5.1.2.1.4.1.6.1.4.1.8.1 1.1.2.2 0 .3.1.3.1.1 0 .1.1.1.1l.5-2.6s-.1 0-.2-.1c-.1 0-.2-.1-.4-.1-.3-.1-.7-.1-1.2-.2-.2-.1-.5-.1-.6-.1-.2-.1-.4-.1-.6-.1-.3-.1-.5-.1-.5-.1l-.1 2.6zM95.7 40.9s.2.1.5.1c.1 0 .2.1.2.1.1 0 .2.1.3.1.2.1.4.1.6.1.2.1.4.1.6.2.2.1.3.1.5.1.2.1.3.1.3.1.1 0 .1.1.1.1l.7-2.5s-.1 0-.2-.1c-.1 0-.2-.1-.4-.1-.2-.1-.3-.1-.5-.1-.2-.1-.4-.1-.6-.2-.2-.1-.4-.1-.6-.2-.1 0-.2-.1-.3-.1s-.2-.1-.3-.1c-.3-.1-.5-.1-.5-.1l-.4 2.6zM99.9 39.2l-.7 2.5s.2.1.5.2.7.2 1.1.3c.4.1.8.3 1.1.3.3.1.5.2.5.2l.9-2.5s-.2-.1-.5-.2-.7-.2-1.1-.4c-.4-.1-.9-.3-1.1-.3-.5 0-.7-.1-.7-.1zM79.7 61c.1 0 .2-.1.3-.1.1 0 .2-.1.3-.1.1 0 .2-.1.3-.1s.2-.1.3-.1c.1 0 .1 0 .2-.1h.1c.2-.1.3-.1.3-.1l-.6-2.4s-.1 0-.3.1c-.1 0-.1 0-.2.1-.1 0-.1 0-.2.1-.1 0-.2.1-.3.1-.2.1-.5.1-.7.2-.1 0-.2.1-.2.1h-.1l.8 2.3zM81.6 60.6s.1 0 .3-.1c.2 0 .4-.1.6-.1.1 0 .2-.1.3-.1.1 0 .2 0 .3-.1.2 0 .3-.1.3-.1l-.3-2.6s-.1 0-.3.1c-.1 0-.2 0-.3.1-.1 0-.2.1-.3.1-.2.1-.5.1-.7.1-.2.1-.3.1-.3.1l.4 2.6zM80.5 54.9s.1-.1.3-.1c.2-.1.5-.1.7-.1.1 0 .3-.1.4-.1s.2-.1.3-.1c.2 0 .3-.1.3-.1l-.3-2.6s-.2 0-.4.1c-.1 0-.2 0-.4.1-.1 0-.3.1-.5.1-.3.1-.6.1-.9.1-.2.1-.4.1-.4.1l.9 2.6zM80 52.1s.2-.1.4-.1c.2-.1.5-.1.9-.1.2 0 .3-.1.5-.1.1 0 .3-.1.4-.1.2 0 .4-.1.4-.1l-.4-2.6s-.2 0-.4.1c-.1 0-.3.1-.4.1-.2 0-.3.1-.5.1-.3.1-.6.1-.9.2-.2.1-.4.1-.4.1l.4 2.5zM79.4 49.3s.2-.1.4-.1c.2-.1.6-.1.9-.2.2 0 .3-.1.5-.1s.3-.1.4-.1c.2-.1.4-.1.4-.1l-.2-2.6s-.2 0-.5.1c-.1 0-.3.1-.5.1s-.3.1-.5.1c-.3.1-.7.1-1 .2-.3.1-.5.1-.5.1l.6 2.6zM78.9 46.5s.2-.1.5-.1c.3-.1.6-.1 1-.2.2 0 .3-.1.5-.1s.3-.1.5-.1c.3-.1.5-.1.5-.1l-.3-2.7s-.2 0-.5.1c-.2 0-.3.1-.5.1s-.3.1-.6.1c-.4.1-.7.1-1 .2-.3.1-.5.1-.5.1l.4 2.7zM78.4 43.6s.2-.1.5-.1c.3-.1.7-.1 1-.2.2 0 .4-.1.6-.1.2 0 .3-.1.5-.1.3-.1.5-.1.5-.1l-.3-2.7s-.2 0-.5.1c-.2 0-.3.1-.5.1s-.4.1-.6.1c-.4.1-.8.1-1.1.2-.3.1-.5.1-.5.1l.4 2.7zM83.6 60.2h.3s.2 0 .3-.1h1.2l-.1-2.6h-1.4c-.1 0-.2 0-.3.1H83.3l.3 2.6zM85.6 60.1h1.8l.1-2.6h-2l.1 2.6zM85.5 57.3h2l.1-2.6h-2l-.1 2.6zM85.4 54.4h2l.1-2.6h-2.6l.5 2.6zM85.3 51.5h2.6l.1-2.6h-2.6v2.6zM85.2 48.6h2.6L88 46h-3l.2 2.6zM85.2 45.8h3l.1-2.6h-3.2l.1 2.6zM74.3 41.6s.1 0 .1-.1c.1 0 .2-.1.3-.1.3-.1.7-.2 1.1-.3.2-.1.4-.1.6-.1.1 0 .2-.1.3-.1.1 0 .2-.1.2-.1.3-.1.5-.1.5-.1l-.4-2.4s-.2.1-.5.1c-.1 0-.2.1-.3.1-.1 0-.2.1-.3.1-.2.1-.4.1-.6.1-.4.1-.9.2-1.1.3-.2.1-.3.1-.4.1-.1 0-.2.1-.2.1l.7 2.4zM77.8 40.8s.2-.1.5-.1c.3-.1.7-.1 1.1-.2.2-.1.4-.1.6-.1.2-.1.3-.1.5-.1.3-.1.5-.1.5-.1l-.3-2.6s-.2 0-.5.1c-.2 0-.3.1-.6.1-.2.1-.4.1-.6.1-.5.1-.9.2-1.2.2l-.6.2.6 2.5zM81.4 40.3h.1c.1 0 .2 0 .3-.1.2 0 .3-.1.5-.1s.4-.1.6-.1c.2 0 .4-.1.6-.1h1l-.1-2.6h-1.2c-.2 0-.4.1-.6.1-.2 0-.5.1-.6.1-.2 0-.4.1-.6.1-.1 0-.2.1-.3.1h-.2l.5 2.6zM84.9 40h3.2l.1-2.6H84.7l.2 2.6z"/><path fill="none" d="M79.4 60.6l-5.9-21.1"/><path fill="#FFFFFB" d="M102.4 65.7c.1.1.2.1.2.2.1.1.3.2.5.4l.2.2.1.1.1.1.2.2 1.8-2-.2-.2-.1-.1-.1-.1c-.1-.1-.2-.2-.3-.2-.2-.2-.4-.3-.5-.5l-.2-.2-.1-.1-1.6 2.2zM103.9 67c.1.1.2.1.2.2l.5.5.2.2.2.2.2.2 2-1.8-.2-.2c-.1-.1-.1-.2-.2-.2l-.3-.3-.5-.5-.2-.2-.1-.1-1.8 2zM107.9 62.8l.2.2.6.6.3.3c.1.1.2.2.2.3l.2.2 2-1.8-.3-.3-.3-.3-.3-.3-.6-.6-.2-.2-.1-.1-1.7 2zM109.9 60.8c.1.1.2.2.3.2l.6.6.3.3.3.3.3.3 2-1.8-.3-.3-.3-.3-.3-.3-.6-.6-.2-.2-.1-.1-2 1.9zM111.8 58.6s.1 0 0 0l.3.3.6.6.3.3.3.3.3.3 2-1.8-.3-.3-.3-.3c-.1-.1-.2-.2-.3-.4-.2-.3-.5-.5-.7-.7l-.2-.2-.1-.1-1.9 2zM113.8 56.5l.1.1.2.2.7.7c.1.1.2.2.3.4l.3.3.3.3 2-1.8-.3-.3-.3-.3-.4-.4c-.3-.3-.6-.5-.7-.7l-.2-.2-.1-.1-1.9 1.8zM115.8 54.4l.1.1c.1.1.2.1.2.2l.7.7.4.4.3.3.3.3 2-1.8s-.1-.2-.3-.4c-.1-.1-.2-.2-.3-.4l-.4-.4-.8-.8-.3-.3-.1-.1-1.8 2.2zM105.4 68.4l.2.2.2.2c.1.1.2.2.2.3l.1.1.1.1c.1.1.1.2.2.2.1.1.1.1.1.2l.1.1 2.1-1.7-.1-.1-.2-.2c-.1-.1-.1-.2-.2-.2-.1-.1-.1-.1-.1-.2s-.1-.1-.1-.2c-.1-.1-.2-.2-.2-.3l-.2-.2-.2-.2-2 1.9zM106.7 70l.2.2c.1.1.2.3.4.5.1.2.3.4.3.5.1.2.2.2.2.2L110 70s-.1-.1-.2-.3-.2-.3-.4-.6c-.2-.2-.3-.4-.4-.6-.1-.2-.2-.2-.2-.2l-2.1 1.7zM108.9 68.2l.2.2c.1.2.3.3.4.6.2.2.3.4.4.6.1.2.2.3.2.3l2.2-1.5s-.1-.1-.2-.3-.3-.4-.5-.6c-.2-.2-.3-.5-.5-.6-.1-.2-.2-.3-.2-.3l-2 1.6zM111.2 66.5s.1.1.2.3c.1.2.3.4.5.6.2.2.3.5.5.6.1.2.2.3.2.3l2.2-1.5s-.1-.1-.2-.3c-.1-.2-.3-.5-.5-.7-.2-.2-.3-.5-.5-.7-.1-.2-.2-.3-.2-.3l-2.2 1.7zM113.5 64.7s.1.1.2.3c.1.2.3.5.5.7.2.2.3.5.5.7.1.2.2.3.2.3l2.2-1.5s-.1-.1-.2-.3-.3-.5-.5-.7c-.2-.3-.4-.5-.6-.7-.2-.2-.2-.3-.2-.3l-2.1 1.5zM115.8 62.9s.1.1.2.3c.2.2.3.5.6.7.2.3.4.6.5.7.1.2.2.3.2.3l2.2-1.5-.2-.4c-.2-.2-.3-.5-.6-.8-.2-.3-.4-.6-.6-.8l-.3-.3-2 1.8zM118 61.2l.3.3c.2.2.4.5.6.8.2.3.4.6.6.8.2.2.2.4.2.4l2.2-1.5s-.1-.2-.3-.4c-.2-.2-.4-.6-.6-.9-.2-.3-.5-.6-.6-.9-.2-.2-.3-.4-.3-.4l-2.1 1.8zM115 50l.1.1c.1.1.2.1.3.2.2.2.6.5.9.7.2.1.3.3.5.4l.2.2.2.2c.2.2.4.3.4.3l1.8-2s-.2-.2-.4-.3l-.2-.2c-.1-.1-.2-.1-.2-.2-.2-.1-.3-.3-.5-.4-.3-.3-.7-.6-.9-.7-.1-.1-.2-.2-.3-.2l-.1-.1-1.8 2zM117.7 52.3l.1.1.3.3.8.8c.2.2.3.3.4.5.1.1.2.3.3.4.2.2.3.4.3.4l2-1.8-.4-.4c-.1-.1-.2-.3-.4-.4l-.5-.5-.9-.9-.3-.3-.1-.1-1.6 1.9zM120.2 54.9s.1.2.3.4c.1.1.2.2.3.4.1.2.3.3.4.5.1.1.1.2.2.2.1.1.1.2.2.2.1.2.2.3.3.4s.2.2.2.3l.1.1 2.1-1.7-.1-.1c-.1-.1-.2-.2-.2-.3-.1-.1-.2-.3-.3-.5-.1-.1-.1-.2-.2-.2s-.1-.2-.2-.2c-.1-.2-.3-.3-.4-.5-.1-.2-.3-.3-.3-.4-.2-.2-.3-.4-.3-.4l-2.1 1.8zM124.7 56l-2.1 1.6s.1.2.3.4c.2.2.5.6.7.9.2.3.5.7.6.9.2.2.3.4.3.4l2.2-1.5s-.1-.2-.3-.5-.5-.6-.7-1c-.3-.3-.5-.7-.7-1-.2 0-.3-.2-.3-.2zM95.5 61.7c.1 0 .2.1.2.1.1.1.2.1.3.1.1.1.2.1.3.1.1.1.2.1.3.1.1 0 .1.1.1.1.1 0 .1.1.1.1.2.1.3.1.3.1l1.1-2.4s-.1-.1-.3-.1c-.1 0-.1-.1-.1-.1-.1 0-.1-.1-.2-.1-.1-.1-.2-.1-.3-.2-.1-.1-.2-.1-.3-.1-.1-.1-.2-.1-.3-.1-.1-.1-.2-.1-.2-.1-.1 0-.1-.1-.1-.1l-.9 2.6zM97.3 62.5c.1.1.2.1.2.2.2.1.3.2.6.3.1.1.2.1.3.2.1.1.2.1.3.1l.2.1 1.3-2.3s-.1-.1-.3-.2c-.1-.1-.2-.1-.3-.2-.1-.1-.2-.1-.3-.2-.2-.1-.5-.2-.6-.3-.1-.1-.2-.1-.2-.1-.1 0-.1-.1-.1-.1l-1.1 2.5zM99.7 57.3s.1 0 .1.1c.1 0 .1.1.2.1.2.1.5.2.7.3.1.1.2.1.3.2.1.1.2.1.3.2.2.1.3.2.3.2l1.3-2.3s-.1-.1-.3-.2c-.1-.1-.2-.1-.3-.2-.1-.1-.3-.1-.4-.2-.3-.2-.6-.3-.7-.4-.1-.1-.2-.1-.2-.1l-.1-.1-1.2 2.4zM101 54.7s.1 0 .1.1c.1.1.2.1.2.1.2.1.5.2.7.4.1.1.3.1.4.2.1.1.2.1.3.2.2.1.3.2.3.2l1.3-2.3s-.2-.1-.3-.2c-.1-.1-.2-.1-.4-.2-.1-.1-.3-.2-.5-.2-.3-.2-.6-.3-.8-.4-.1-.1-.2-.1-.3-.1l-.1-.1-.9 2.3zM102.2 52.1s.1 0 .1.1.2.1.3.1c.2.1.5.2.8.4.2.1.3.2.5.2.1.1.3.2.4.2.2.1.3.2.3.2l1.3-2.3-.4-.2c-.1-.1-.2-.1-.4-.2s-.3-.2-.5-.2c-.3-.2-.6-.3-.9-.5-.1-.1-.2-.1-.3-.1l-.1-.1-1.1 2.4zM103.4 49.5s.1 0 .1.1c.1.1.2.1.3.1.2.1.6.3.9.5.2.1.3.2.5.2.2.1.3.2.4.2l.4.2 1.3-2.3-.4-.2c-.1-.1-.3-.2-.5-.2s-.3-.2-.5-.3c-.3-.2-.7-.3-1-.5-.1-.1-.2-.1-.3-.2l-.1-.1-1.1 2.5zM104.7 46.9s.1 0 .1.1c.1.1.2.1.3.2.3.1.6.3 1 .5.2.1.3.2.5.3.2.1.3.2.5.2l.4.2 1.3-2.3s-.2-.1-.5-.2c-.1-.1-.3-.2-.5-.2-.2-.1-.3-.2-.5-.3-.3-.2-.7-.3-1-.5-.1-.1-.2-.1-.3-.2l-.1-.1-1.2 2.3zM99.1 63.5l.2.2c.1.1.2.1.2.2.1.1.2.1.3.2.2.1.4.2.5.3.2.1.2.2.2.2l1.5-2.2s-.1-.1-.3-.2c-.2-.1-.4-.2-.6-.4-.1-.1-.2-.1-.3-.2-.1-.1-.2-.1-.3-.2-.2-.1-.3-.2-.3-.2l-1.1 2.3zM100.8 64.5l.2.2c.1.1.2.1.2.2.1.1.2.1.3.2.2.1.3.3.5.4l.2.2 1.7-2.1-.2-.2c-.2-.1-.3-.3-.6-.4-.1-.1-.2-.2-.3-.2-.1-.1-.2-.1-.3-.2-.2-.1-.3-.2-.3-.2l-1.4 2.1zM102.4 62.1s.1.1.3.2c.1.1.2.1.3.2s.2.2.3.2c.2.2.4.3.6.4s.2.2.2.2l1.7-2.1s-.1-.1-.3-.2c-.2-.1-.4-.3-.6-.5-.1-.1-.2-.2-.3-.2-.1-.1-.2-.2-.3-.2-.2-.1-.3-.2-.3-.2l-1.6 2.2zM104.1 59.8s.1.1.3.2c.1.1.2.1.3.2.1.1.2.2.3.2.2.2.5.3.6.5.2.1.3.2.3.2l1.7-2.1s-.1-.1-.3-.2c-.2-.1-.4-.3-.7-.5l-.3-.3c-.1-.1-.2-.2-.3-.2-.2-.1-.3-.2-.3-.2l-1.6 2.2zM105.7 57.4s.1.1.3.2c.1.1.2.2.3.2l.3.3c.2.2.5.3.7.5.2.2.3.2.3.2l1.7-2.1-.3-.3c-.2-.2-.5-.3-.7-.6-.1-.1-.3-.2-.4-.3-.1-.1-.2-.2-.3-.2-.2-.1-.3-.2-.3-.2l-1.6 2.3zM107.3 55s.1.1.3.2c.1.1.2.2.3.2.1.1.3.2.4.3.3.2.5.4.7.6l.3.3 1.7-2.1-.3-.3c-.2-.2-.5-.4-.8-.6-.2-.1-.3-.2-.4-.3-.1-.1-.3-.2-.4-.3-.2-.2-.3-.2-.3-.2l-1.5 2.2zM108.9 52.6s.2.1.3.2c.1.1.2.2.4.3.1.1.3.2.5.3.3.2.6.5.8.6l.3.3 1.7-2.1s-.2-.1-.4-.3c-.2-.2-.5-.4-.9-.6-.2-.1-.3-.2-.5-.3-.2-.1-.3-.2-.4-.3-.2-.2-.4-.3-.4-.3l-1.4 2.2zM102.6 42.9s.1 0 .1.1c.1.1.2.1.3.1.2.1.3.1.5.2s.4.2.6.2c.2.1.4.2.6.2.1.1.2.1.2.1l.2.1c.3.1.5.2.5.2l1.1-2.4s-.2-.1-.5-.2c-.1-.1-.2-.1-.2-.1-.1-.1-.2-.1-.3-.1-.2-.1-.4-.2-.6-.2-.2-.1-.4-.2-.6-.2-.2-.1-.3-.2-.5-.2-.2-.1-.3-.1-.3-.1l-.1-.1-1 2.4zM105.9 44.3s.1 0 .1.1c.1.1.2.1.3.2.3.1.6.3 1 .5.2.1.3.2.5.3.2.1.3.2.5.2.3.2.5.2.5.2l1.3-2.3s-.2-.1-.5-.3c-.2-.1-.3-.2-.5-.3l-.6-.3c-.4-.2-.8-.4-1.1-.5-.2-.1-.3-.1-.3-.2l-.1-.1-1.1 2.5zM109 45.9s.2.1.5.3c.1.1.3.2.5.3.2.1.3.2.5.3.3.2.7.5 1 .6s.5.3.5.3l1.5-2.2s-.2-.1-.5-.3-.6-.4-1-.6l-.6-.3c-.2-.1-.3-.2-.5-.3-.3-.2-.5-.3-.5-.3l-1.4 2.2zM112.1 47.8s.2.1.4.3c.1.1.3.2.5.3.2.1.3.2.5.3.3.2.7.5.9.7.2.2.4.3.4.3l1.7-2.1s-.2-.1-.4-.3c-.3-.2-.6-.5-1-.7-.2-.1-.3-.2-.5-.4-.2-.1-.3-.2-.5-.3-.3-.2-.5-.3-.5-.3l-1.5 2.2z"/><path fill="none" d="M95.5 61.3l7.6-20.6"/><path fill="#FFFFFB" d="M111.2 78.9c0 .1.1.2.1.3 0 .1.1.2.1.3 0 .1.1.2.1.3 0 .1.1.2.1.3 0 .1 0 .1.1.2v.1c.1.2.1.3.1.3l2.6-.5s0-.1-.1-.3c0-.1 0-.1-.1-.2 0-.1 0-.1-.1-.2 0-.1-.1-.2-.1-.3-.1-.2-.1-.5-.2-.7 0-.1-.1-.2-.1-.2v-.1l-2.5.7zM111.6 80.9s0 .1.1.3c0 .2.1.4.1.6 0 .1.1.2.1.3 0 .1 0 .2.1.3 0 .2.1.3.1.3l2.6-.3s0-.1-.1-.3c0-.1 0-.2-.1-.3 0-.1-.1-.2-.1-.3-.1-.2-.1-.5-.1-.7-.1-.2-.1-.3-.1-.3l-2.6.4zM117.3 79.8s.1.1.1.3c.1.2.1.5.1.7 0 .1.1.3.1.4 0 .1.1.2.1.3 0 .2.1.3.1.3l2.6-.3s0-.2-.1-.4c0-.1 0-.2-.1-.4 0-.1-.1-.3-.1-.5-.1-.3-.1-.6-.1-.9-.1-.2-.1-.4-.1-.4l-2.6.9zM120.1 79.2s.1.2.1.4c.1.2.1.5.1.9 0 .2.1.3.1.5 0 .1.1.3.1.4 0 .2.1.4.1.4l2.6-.3s0-.2-.1-.4c0-.1-.1-.3-.1-.4 0-.2-.1-.3-.1-.5-.1-.3-.1-.6-.2-.9-.1-.2-.1-.4-.1-.4l-2.5.3zM122.9 78.7s.1.2.1.4c.1.2.1.6.2.9 0 .2.1.3.1.5s.1.3.1.4c.1.2.1.4.1.4l2.6-.3s0-.2-.1-.5c0-.1-.1-.3-.1-.5s-.1-.3-.1-.5c-.1-.3-.1-.7-.2-1s-.1-.5-.1-.5l-2.6.7zM125.8 78.1s.1.2.1.5c.1.3.1.6.2 1 0 .2.1.3.1.5s.1.3.1.5c.1.3.1.5.1.5l2.6-.3s0-.2-.1-.5c0-.2-.1-.3-.1-.5s-.1-.3-.1-.6c-.1-.4-.1-.7-.2-1-.1-.3-.1-.5-.1-.5l-2.6.4zM128.6 77.6s.1.2.1.5c.1.3.1.7.2 1 0 .2.1.4.1.6 0 .2.1.3.1.5.1.3.1.5.1.5l2.6-.3s0-.2-.1-.5c0-.2-.1-.3-.1-.5s-.1-.4-.1-.6c-.1-.4-.1-.8-.2-1.1-.1-.3-.1-.5-.1-.5l-2.6.4zM111.9 82.9v.3c0 .1 0 .2.1.3v1.2l2.6-.1v-1.4c0-.1 0-.2-.1-.3V82.6l-2.6.3zM112 84.9v1.8l2.6.1v-2l-2.6.1zM114.9 84.7v2l2.6.1v-2l-2.6-.1zM117.8 84.7v2l2.6.1v-2.6l-2.6.5zM120.7 84.6v2.6l2.6.1v-2.6h-2.6zM123.6 84.5v2.6l2.6.1v-3l-2.6.3zM126.4 84.4v3l2.6.1v-3.2l-2.6.1zM130.6 73.6s0 .1.1.1c0 .1.1.2.1.3.1.3.2.7.3 1.1.1.2.1.4.1.6 0 .1.1.2.1.3 0 .1.1.2.1.2.1.3.1.5.1.5l2.6-.5s-.1-.2-.1-.5c0-.1-.1-.2-.1-.3 0-.1-.1-.2-.1-.3-.1-.2-.1-.4-.1-.6-.1-.4-.2-.9-.3-1.1-.1-.2-.1-.3-.1-.4 0-.1-.1-.2-.1-.2l-2.6.8zM131.4 77.1s.1.2.1.5c.1.3.1.7.2 1.1.1.2.1.4.1.6.1.2.1.3.1.5.1.3.1.5.1.5l2.6-.3s0-.2-.1-.5c0-.2-.1-.3-.1-.6-.1-.2-.1-.4-.1-.6-.1-.5-.2-.9-.2-1.2-.1-.3-.1-.5-.1-.5l-2.6.5zM131.9 80.7v.1c0 .1 0 .2.1.3 0 .2.1.3.1.5s.1.4.1.6.1.4.1.6v1l2.6-.1v-1.2c0-.2-.1-.4-.1-.6s-.1-.5-.1-.6c0-.2-.1-.4-.1-.6 0-.2-.1-.3-.1-.4v-.2l-2.6.6zM134.8 84.1l-2.6.1v3.2l2.6.1V84.1zM107.8 71.7c.1.1.1.2.2.2.1.1.1.2.2.2.1.1.1.2.2.3l.3.6.1.2 2.3-1.3s-.1-.1-.2-.3l-.3-.6c-.1-.1-.1-.2-.2-.3-.1-.1-.1-.2-.2-.3-.1-.1-.1-.2-.1-.2l-.1-.1-2.2 1.6zM108.9 73.4c.1.1.1.2.2.2.1.1.1.2.1.3.1.1.1.2.2.3.1.1.1.2.2.3.1.1.1.2.1.3.1.1.1.1.1.2s.1.1.1.1l2.4-1.1s0-.1-.1-.1c0-.1-.1-.1-.1-.2-.1-.1-.1-.2-.1-.3-.1-.1-.1-.2-.2-.3-.1-.1-.1-.2-.2-.3-.1-.1-.1-.2-.2-.3-.1-.1-.1-.2-.1-.2 0-.1-.1-.1-.1-.1l-2.3 1.2zM113.9 70.6c.1.1.1.2.2.3.1.1.1.2.2.3.1.1.1.2.2.3.1.1.1.2.2.3.1.1.1.2.2.3.1.1.1.2.1.2 0 .1.1.1.1.1l2.4-1.1s0-.1-.1-.1c-.1-.1-.1-.2-.1-.2-.1-.1-.1-.2-.2-.3-.1-.1-.1-.3-.2-.4-.1-.1-.1-.3-.2-.4-.1-.1-.1-.2-.2-.3-.1-.1-.1-.2-.1-.2l-.1-.1-2.4 1.3zM116.5 69.2s0 .1.1.1c.1.1.1.2.1.2.1.1.1.2.2.3.1.1.1.3.2.4.1.1.1.3.2.4.1.1.1.2.2.3.1.1.1.2.1.2l.1.1 2.4-1.1s0-.1-.1-.1-.1-.2-.1-.3c-.1-.1-.1-.2-.2-.4-.1-.1-.2-.3-.2-.5-.1-.2-.2-.3-.2-.5-.1-.1-.1-.3-.2-.4-.1-.1-.1-.2-.1-.3l-.1-.1-2.4 1.7zM119 67.8s0 .1.1.1c.1.1.1.2.2.3.1.1.1.2.2.4.1.1.2.3.2.5.1.2.2.3.2.5.1.1.1.3.2.4.1.1.1.2.1.3l.1.1 2.4-1.1s0-.1-.1-.1-.1-.2-.1-.3c-.1-.1-.1-.3-.2-.4-.1-.2-.2-.3-.2-.5s-.2-.3-.2-.5c-.1-.2-.2-.3-.2-.4-.1-.1-.1-.2-.2-.3l-.1-.1-2.4 1.1zM121.4 66.4s0 .1.1.1c.1.1.1.2.2.3.1.1.1.3.2.4.1.2.2.3.2.5.1.2.2.3.2.5.1.2.1.3.2.4.1.1.1.2.1.3l.1.1 2.4-1.1s0-.1-.1-.1-.1-.2-.2-.3c-.1-.1-.1-.3-.2-.5s-.2-.3-.2-.5c-.1-.2-.2-.3-.2-.5-.1-.2-.2-.3-.2-.5-.1-.1-.1-.2-.2-.3l-.1-.1-2.3 1.3zM124 65s0 .1.1.1c.1.1.1.2.2.3s.2.3.2.5c.1.2.2.3.3.5.1.2.2.3.2.5.1.2.2.3.2.5.1.1.1.2.2.3l.1.1 2.4-1.1s0-.1-.1-.1c-.1-.1-.1-.2-.2-.3-.1-.1-.2-.3-.2-.5-.1-.2-.2-.3-.3-.5-.1-.2-.2-.3-.3-.5-.1-.2-.2-.3-.2-.5-.1-.1-.1-.2-.2-.3l-.1-.1L124 65zM109.8 75.2s.1.1.1.3c.1.2.2.3.2.6 0 .1.1.1.1.2s.1.1.1.2c.1.1.1.2.1.3 0 .1.1.1.1.1 0 .1 0 .1.1.1v.1L113 76s0-.1-.1-.1c0 0 0-.1-.1-.1 0-.1-.1-.1-.1-.1-.1-.1-.1-.2-.1-.3 0-.1-.1-.1-.1-.2s-.1-.1-.1-.2c-.1-.2-.2-.5-.3-.6-.1-.2-.1-.3-.1-.3l-2.2 1.1zM110.5 77s.1.1.1.3c.1.2.1.4.2.6.1.2.1.5.2.6.1.2.1.3.1.3l2.5-.7s-.1-.1-.1-.3c-.1-.2-.1-.4-.2-.7-.1-.2-.2-.5-.2-.7-.1-.2-.1-.3-.1-.3l-2.5.9zM113.2 76s.1.1.1.3c.1.2.1.4.2.7.1.2.2.5.2.7.1.2.1.3.1.3l2.5-.7s-.1-.1-.1-.3c-.1-.2-.2-.5-.2-.7-.1-.3-.2-.5-.2-.7-.1-.2-.1-.3-.1-.3l-2.5.7zM115.9 75s.1.1.1.3c.1.2.2.5.2.7.1.3.2.5.2.7.1.2.1.3.1.3l2.5-.7s-.1-.2-.1-.3c-.1-.2-.2-.5-.2-.8-.1-.3-.2-.6-.3-.8-.1-.2-.1-.3-.1-.3l-2.4.9zM118.6 74.1s.1.2.1.3c.1.2.2.5.3.8.1.3.2.6.2.8.1.2.1.3.1.3l2.5-.7s-.1-.2-.1-.4c-.1-.2-.2-.6-.3-.9l-.3-.9c-.1-.2-.1-.4-.1-.4l-2.4 1.1zM121.4 73.1s.1.2.1.4c.1.2.2.6.3.9l.3.9c.1.2.1.4.1.4l2.5-.7s-.1-.2-.1-.5c-.1-.3-.2-.6-.3-1-.1-.3-.2-.7-.3-.9l-.2-.4-2.4.9zM124.1 72.1l.2.4c.1.2.2.6.3.9s.2.7.3 1c.1.3.1.5.1.5l2.5-.7s-.1-.2-.1-.5c-.1-.3-.2-.6-.3-1-.1-.3-.2-.7-.3-1-.1-.3-.2-.5-.2-.5l-2.5.9zM124.7 60.5s0 .1.1.1c.1.1.1.2.2.3.1.1.2.3.3.5.1.2.2.3.3.5.2.3.4.7.6 1s.2.5.2.5l2.3-1.3s-.1-.2-.3-.5-.4-.7-.6-1l-.3-.6c-.1-.2-.2-.3-.3-.5-.1-.1-.2-.2-.2-.3l-.1-.1-2.2 1.4zM126.5 63.6s0 .1.1.1c.1.1.1.2.2.3.1.1.2.3.2.5.1.2.2.3.3.5.1.2.2.3.3.5.1.2.2.3.2.5.1.1.1.2.2.3l.1.1 2.4-1.1s0-.1-.1-.1c-.1-.1-.1-.2-.2-.3-.1-.2-.2-.3-.2-.5l-.3-.6-.3-.6s-.2-.3-.3-.5c-.1-.2-.1-.3-.2-.3s-.1-.1-.1-.1l-2.3 1.3zM128.1 66.8s.1.2.2.5.3.7.5 1c.1.1.1.2.1.3s.1.2.1.3c.1.2.1.3.2.5 0 .1.1.1.1.2s.1.1.1.2l.1.1 2.5-.9s0-.1-.1-.1c0-.1-.1-.1-.1-.2s-.1-.1-.1-.2c-.1-.2-.1-.3-.2-.5-.1-.1-.1-.2-.1-.3-.1-.1-.1-.2-.1-.3-.2-.4-.3-.8-.5-1.1s-.2-.5-.2-.5l-2.5 1zM129.5 70.2s.1.2.2.5.2.7.3 1.1c.1.4.2.8.3 1.1.1.3.1.5.1.5l2.5-.7s-.1-.2-.2-.5-.2-.7-.3-1.1c-.1-.4-.3-.9-.4-1.1s-.2-.5-.2-.5l-2.3.7z"/><path fill="none" d="M108.1 71.3l18.3-12.2"/><path fill="#FFFFFB" d="M110.4 94.7c0 .1-.1.2-.1.2-.1.1-.1.2-.1.3-.1.1-.1.2-.1.3-.1.1-.1.2-.1.3s-.1.1-.1.1c0 .1-.1.1-.1.1-.1.2-.1.3-.1.3l2.4 1.1s.1-.1.1-.3c0-.1.1-.1.1-.1 0-.1.1-.1.1-.2.1-.1.1-.2.2-.3.1-.1.1-.2.1-.3.1-.1.1-.2.1-.3.1-.1.1-.2.1-.2 0-.1.1-.1.1-.1l-2.6-.9zM109.7 96.6c-.1.1-.1.2-.2.2-.1.2-.2.3-.3.6-.1.1-.1.2-.2.3-.1.1-.1.2-.1.3l-.1.2 2.3 1.3s.1-.1.2-.3c.1-.1.1-.2.2-.3.1-.1.1-.2.2-.3.1-.2.2-.5.3-.6.1-.1.1-.2.1-.2 0-.1.1-.1.1-.1l-2.5-1.1zM114.8 99s0 .1-.1.1c0 .1-.1.1-.1.2-.1.2-.2.5-.3.7-.1.1-.1.2-.2.3-.1.1-.1.2-.2.3-.1.2-.2.3-.2.3l2.3 1.3s.1-.1.2-.3c.1-.1.1-.2.2-.3.1-.1.1-.3.2-.4.2-.3.3-.6.4-.7.1-.1.1-.2.1-.2 0-.1.1-.1.1-.1l-2.4-1.2zM117.5 100.2s0 .1-.1.1-.1.2-.1.2c-.1.2-.2.5-.4.7-.1.1-.1.3-.2.4-.1.1-.1.2-.2.3-.1.2-.2.3-.2.3l2.3 1.3s.1-.2.2-.3c.1-.1.1-.2.2-.4.1-.1.2-.3.2-.5.2-.3.3-.6.4-.8.1-.1.1-.2.1-.3l.1-.1-2.3-.9zM120.1 101.5s0 .1-.1.1-.1.2-.1.3c-.1.2-.2.5-.4.8-.1.2-.2.3-.2.5-.1.1-.2.3-.2.4-.1.2-.2.3-.2.3l2.3 1.3.2-.4c.1-.1.1-.2.2-.4s.2-.3.2-.5c.2-.3.3-.6.5-.9.1-.1.1-.2.1-.3l.1-.1-2.4-1.1zM122.7 102.7s0 .1-.1.1c-.1.1-.1.2-.1.3-.1.2-.3.6-.5.9-.1.2-.2.3-.2.5-.1.2-.2.3-.2.4l-.2.4 2.3 1.3.2-.4c.1-.1.2-.3.2-.5.1-.2.2-.3.3-.5.2-.3.3-.7.5-1 .1-.1.1-.2.2-.3l.1-.1-2.5-1.1zM125.3 103.9s0 .1-.1.1c-.1.1-.1.2-.2.3-.1.3-.3.6-.5 1-.1.2-.2.3-.3.5-.1.2-.2.3-.2.5l-.2.4 2.3 1.3s.1-.2.2-.5c.1-.1.2-.3.2-.5.1-.2.2-.3.3-.5.2-.3.3-.7.5-1 .1-.1.1-.2.2-.3l.1-.1-2.3-1.2zM108.7 98.4l-.2.2c-.1.1-.1.2-.2.2-.1.1-.1.2-.2.3-.1.2-.2.4-.3.5-.1.2-.2.2-.2.2l2.2 1.5s.1-.1.2-.3c.1-.2.2-.4.4-.6.1-.1.1-.2.2-.3.1-.1.1-.2.2-.3.1-.2.2-.3.2-.3l-2.3-1.1zM107.7 100.1l-.2.2c-.1.1-.1.2-.2.2-.1.1-.1.2-.2.3-.1.2-.3.3-.4.5l-.2.2 2.1 1.7.2-.2c.1-.2.3-.3.4-.6.1-.1.2-.2.2-.3.1-.1.1-.2.2-.3.1-.2.2-.3.2-.3l-2.1-1.4zM110 101.7s-.1.1-.2.3c-.1.1-.1.2-.2.3-.1.1-.2.2-.2.3-.2.2-.3.4-.4.6-.1.2-.2.2-.2.2l2.1 1.7s.1-.1.2-.3c.1-.2.3-.4.5-.6.1-.1.2-.2.2-.3.1-.1.2-.2.2-.3.1-.2.2-.3.2-.3l-2.2-1.6zM112.4 103.3s-.1.1-.2.3c-.1.1-.1.2-.2.3-.1.1-.2.2-.2.3-.2.2-.3.5-.5.6-.1.2-.2.3-.2.3l2.1 1.7s.1-.1.2-.3c.1-.2.3-.4.5-.7l.3-.3c.1-.1.2-.2.2-.3.1-.2.2-.3.2-.3l-2.2-1.6zM114.8 105s-.1.1-.2.3c-.1.1-.2.2-.2.3l-.3.3c-.2.2-.3.5-.5.7-.2.2-.2.3-.2.3l2.1 1.7.3-.3c.2-.2.3-.5.6-.7.1-.1.2-.3.3-.4.1-.1.2-.2.2-.3.1-.2.2-.3.2-.3l-2.3-1.6zM117.2 106.6s-.1.1-.2.3c-.1.1-.2.2-.2.3-.1.1-.2.3-.3.4-.2.3-.4.5-.6.7l-.3.3 2.1 1.7.3-.3c.2-.2.4-.5.6-.8.1-.2.2-.3.3-.4.1-.1.2-.3.3-.4.2-.2.2-.3.2-.3l-2.2-1.5zM119.6 108.2s-.1.2-.2.3c-.1.1-.2.2-.3.4-.1.1-.2.3-.3.5-.2.3-.5.6-.6.8l-.3.3 2.1 1.7s.1-.2.3-.4.4-.5.6-.9c.1-.2.2-.3.3-.5.1-.2.2-.3.3-.4.2-.2.3-.4.3-.4l-2.2-1.4zM129.3 101.9s0 .1-.1.1c-.1.1-.1.2-.1.3-.1.2-.1.3-.2.5s-.2.4-.2.6c-.1.2-.2.4-.2.6-.1.1-.1.2-.1.2l-.1.2c-.1.3-.2.5-.2.5l2.4 1.1s.1-.2.2-.5c.1-.1.1-.2.1-.2.1-.1.1-.2.1-.3.1-.2.2-.4.2-.6.1-.2.2-.4.2-.6.1-.2.2-.3.2-.5.1-.2.1-.3.1-.3l.1-.1-2.4-1zM127.9 105.1s0 .1-.1.1c-.1.1-.1.2-.2.3-.1.3-.3.6-.5 1-.1.2-.2.3-.3.5-.1.2-.2.3-.2.5-.2.3-.2.5-.2.5l2.3 1.3s.1-.2.3-.5c.1-.2.2-.3.3-.5l.3-.6c.2-.4.4-.8.5-1.1.1-.2.1-.3.2-.3l.1-.1-2.5-1.1zM126.2 108.3s-.1.2-.3.5c-.1.1-.2.3-.3.5s-.2.3-.3.5c-.2.3-.5.7-.6 1-.2.3-.3.5-.3.5l2.2 1.5s.1-.2.3-.5c.2-.3.4-.6.6-1l.3-.6c.1-.2.2-.3.3-.5.2-.3.3-.5.3-.5l-2.2-1.4zM126.5 112.9l-2.2-1.5s-.1.2-.3.4c-.1.1-.2.3-.3.5-.1.2-.2.3-.3.5-.2.3-.5.7-.7.9-.2.2-.3.4-.3.4l2.1 1.7s.1-.2.3-.4c.2-.3.5-.6.7-1 .1-.2.2-.3.4-.5.1-.2.2-.3.3-.5.2-.4.3-.5.3-.5zM112 86.9V87.8c0 .2-.1.5-.1.6V88.7l2.6.3V88.7c0-.2.1-.5.1-.7 0-.1 0-.2.1-.4V87H112zM111.9 88.9s0 .1-.1.3c0 .1 0 .2-.1.3 0 .1-.1.2-.1.3-.1.2-.1.5-.1.6 0 .1 0 .2-.1.2v.1l2.6.5v-.1s0-.1.1-.2c.1-.2.1-.5.1-.7 0-.1.1-.2.1-.3 0-.1.1-.2.1-.3 0-.2.1-.3.1-.3l-2.6-.4zM117.6 89.6s0 .1-.1.3c0 .1 0 .2-.1.3 0 .1-.1.3-.1.4-.1.3-.1.6-.1.7 0 .1-.1.2-.1.2v.1l2.6.5V92s.1-.2.1-.3c.1-.2.1-.5.2-.9 0-.2.1-.3.1-.5 0-.1.1-.3.1-.4.1-.2.1-.4.1-.4l-2.7.1zM120.4 90s0 .2-.1.4c0 .1-.1.2-.1.4 0 .1-.1.3-.1.5-.1.3-.1.6-.2.9 0 .1-.1.2-.1.3v.1l2.6.5V93c0-.1.1-.2.1-.3.1-.2.1-.6.2-.9 0-.2.1-.3.1-.5s.1-.3.1-.4c.1-.2.1-.4.1-.4l-2.6-.5zM123.3 90.3s0 .2-.1.4c0 .1-.1.3-.1.4 0 .2-.1.3-.1.5-.1.3-.1.7-.2.9 0 .1-.1.2-.1.3v.1l2.6.5v-.1c0-.1.1-.2.1-.3.1-.3.1-.6.2-1 0-.2.1-.3.1-.5s.1-.3.1-.5c.1-.3.1-.5.1-.5l-2.6-.2zM126.2 90.7s0 .2-.1.5c0 .1-.1.3-.1.5s-.1.3-.1.5c-.1.3-.1.7-.2 1 0 .1-.1.2-.1.3v.1l2.6.5V94c0-.1.1-.2.1-.3.1-.3.1-.7.2-1 .1-.2.1-.4.1-.6.1-.2.1-.3.1-.5.1-.3.1-.5.1-.5l-2.6-.4zM129 91s0 .2-.1.5c0 .2-.1.3-.1.5s-.1.3-.1.6c-.1.4-.1.7-.2 1 0 .1-.1.3-.1.3v.1l2.6.5v-.1c0-.1.1-.2.1-.3.1-.3.1-.7.2-1.1.1-.2.1-.4.1-.6.1-.2.1-.3.1-.5.1-.3.1-.5.1-.5L129 91zM111.5 90.9s0 .1-.1.3v.1c0 .1 0 .1-.1.2 0 .1-.1.2-.1.3 0 .1-.1.2-.1.3 0 .1-.1.2-.1.3 0 .1-.1.2-.1.2v.1l2.5.7v-.1c0-.1.1-.1.1-.2s.1-.2.1-.3c.1-.1.1-.2.1-.3.1-.1.1-.2.1-.3 0-.1 0-.1.1-.2 0-.1 0-.1.1-.2.1-.2.1-.3.1-.3l-2.6-.6zM111.1 92.8s-.1.1-.1.3c-.1.2-.1.4-.2.6-.1.2-.2.5-.2.6-.1.2-.1.3-.1.3l2.5.9s.1-.1.1-.3c.1-.2.2-.4.2-.7.1-.2.2-.5.2-.7.1-.2.1-.3.1-.3l-2.5-.7zM113.8 93.6s-.1.1-.1.3c-.1.2-.1.4-.2.7-.1.2-.2.5-.2.7-.1.2-.1.3-.1.3l2.5.9s.1-.1.1-.3c.1-.2.2-.5.2-.7.1-.3.2-.5.2-.7.1-.2.1-.3.1-.3l-2.5-.9zM116.6 94.4s-.1.1-.1.3c-.1.2-.2.5-.2.7-.1.3-.2.5-.2.7-.1.2-.1.3-.1.3l2.5.9s.1-.2.1-.3c.1-.2.2-.5.3-.8s.2-.6.2-.8c.1-.2.1-.3.1-.3l-2.6-.7zM119.3 95.3s-.1.2-.1.3c-.1.2-.2.5-.2.8-.1.3-.2.6-.3.8-.1.2-.1.3-.1.3l2.5.9.2-.4c.1-.2.2-.6.3-.9l.3-.9c.1-.2.1-.4.1-.4l-2.7-.5zM122.1 96.1s-.1.2-.1.4c-.1.2-.2.6-.3.9l-.3.9-.2.4 2.5.9.2-.4.3-.9c.1-.3.2-.7.3-.9.1-.3.1-.5.1-.5l-2.5-.8zM124.9 96.8s-.1.2-.1.5c-.1.3-.2.6-.3 1-.1.3-.2.7-.3.9l-.2.4 2.5.9s.1-.2.2-.5.2-.6.3-1c.1-.3.2-.7.3-1 .1-.3.1-.5.1-.5l-2.5-.7zM132.1 87.8v.5c0 .2 0 .3-.1.5 0 .2-.1.4-.1.6-.1.4-.1.8-.1 1.1 0 .2-.1.3-.1.3v.1l2.6.3V91c0-.1 0-.2.1-.4.1-.3.1-.7.1-1.2 0-.2.1-.5.1-.6 0-.2 0-.4.1-.6 0-.3.1-.5.1-.5l-2.7.1zM131.8 91.4s0 .2-.1.5c0 .2-.1.3-.1.5-.1.2-.1.4-.1.6-.1.4-.1.8-.2 1.1 0 .2-.1.3-.1.3 0 .1-.1.1-.1.1l2.6.5s0-.1.1-.2c0-.1.1-.2.1-.4.1-.3.1-.7.2-1.2.1-.2.1-.5.1-.6.1-.2.1-.4.1-.6.1-.3.1-.5.1-.5l-2.6-.1zM131.3 94.9s-.1.2-.1.5c0 .1-.1.2-.1.2 0 .1-.1.2-.1.3-.1.2-.1.4-.1.6-.1.2-.1.4-.2.6-.1.2-.1.3-.1.5-.1.2-.1.3-.1.3 0 .1-.1.1-.1.1l2.5.7s0-.1.1-.2c0-.1.1-.2.1-.4.1-.2.1-.3.1-.5.1-.2.1-.4.2-.6s.1-.4.2-.6c0-.1.1-.2.1-.3 0-.1.1-.2.1-.3.1-.3.1-.5.1-.5l-2.6-.4zM130.4 98.4s-.1.2-.2.5-.2.7-.3 1.1c-.1.4-.3.8-.3 1.1-.1.3-.2.5-.2.5l2.5.9s.1-.2.2-.5.2-.7.4-1.1c.1-.4.3-.9.3-1.1.1-.3.2-.5.2-.5l-2.6-.9z"/><path fill="none" d="M112.4 86.8l22 .9"/><path fill="#FFFFFB" d="M100.6 107.1c-.1.1-.2.1-.2.2s-.2.1-.2.2c-.1.1-.2.1-.3.2l-.6.3-.2.1 1.3 2.3s.1-.1.3-.2l.6-.3c.1-.1.2-.1.3-.2.1-.1.2-.1.3-.2.1-.1.2-.1.2-.1l.1-.1-1.6-2.2zM98.8 108.2c-.1.1-.2.1-.2.2-.1.1-.2.1-.3.1-.1.1-.2.1-.3.2-.1.1-.2.1-.3.2-.1.1-.2.1-.3.1-.1.1-.1.1-.2.1s-.1.1-.1.1l1.1 2.4s.1 0 .1-.1c.1 0 .1-.1.2-.1.1-.1.2-.1.3-.1.1-.1.2-.1.3-.2.1-.1.2-.1.3-.2.1-.1.2-.1.3-.2s.2-.1.2-.1c.1 0 .1-.1.1-.1l-1.2-2.3zM101.6 113.2s-.1 0 0 0c-.1.1-.2.1-.3.2s-.2.1-.3.2c-.1.1-.2.1-.3.2-.1.1-.2.1-.3.2-.1.1-.2.1-.3.2s-.2.1-.2.1c-.1 0-.1.1-.1.1l1.1 2.4s.1 0 .1-.1.2-.1.2-.1c.1-.1.2-.1.3-.2s.3-.1.4-.2c.1-.1.3-.1.4-.2.1-.1.2-.1.3-.2.1-.1.2-.1.2-.1l.1-.1-1.3-2.4zM103 115.7s-.1 0-.1.1-.2.1-.2.1c-.1.1-.2.1-.3.2-.1.1-.3.1-.4.2-.1.1-.3.1-.4.2-.1.1-.2.1-.3.2-.1.1-.2.1-.2.1l-.1.1 1.1 2.4s.1 0 .1-.1c.1-.1.2-.1.3-.1.1-.1.2-.1.4-.2.1-.1.3-.2.5-.2.2-.1.3-.2.5-.2.1-.1.3-.1.4-.2.1-.1.2-.1.3-.1l.1-.1-1.7-2.4zM104.4 118.2s-.1 0-.1.1-.2.1-.3.2c-.1.1-.2.1-.4.2-.1.1-.3.2-.5.2-.2.1-.3.2-.5.2-.1.1-.3.1-.4.2-.1.1-.2.1-.3.1l-.1.1 1.1 2.4s.1 0 .1-.1c.1-.1.2-.1.3-.1.1-.1.3-.1.4-.2.2-.1.3-.2.5-.2.2-.1.3-.2.5-.2.2-.1.3-.2.4-.2.1-.1.2-.1.3-.2l.1-.1-1.1-2.4zM105.8 120.7s-.1 0-.1.1c-.1.1-.2.1-.3.2-.1.1-.3.1-.4.2-.2.1-.3.2-.5.2-.2.1-.3.2-.5.2-.2.1-.3.1-.4.2-.1.1-.2.1-.3.1l-.1.1 1.1 2.4s.1 0 .1-.1c.1-.1.2-.1.3-.2.1-.1.3-.1.5-.2s.3-.2.5-.2c.2-.1.3-.2.5-.2.2-.1.3-.2.5-.2.1-.1.2-.1.3-.2l.1-.1-1.3-2.3zM107.2 123.3s-.1 0-.1.1-.2.1-.3.2c-.1.1-.3.2-.5.2-.2.1-.3.2-.5.3-.2.1-.3.2-.5.2-.2.1-.3.2-.5.2-.1.1-.2.1-.3.2l-.1.1 1.1 2.4s.1 0 .1-.1.2-.1.3-.2c.1-.1.3-.2.5-.2.2-.1.3-.2.5-.3.2-.1.3-.2.5-.3.2-.1.3-.2.5-.2.1-.1.2-.1.3-.2l.1-.1-1.1-2.3zM97 109.1s-.1.1-.3.1c-.2.1-.3.2-.6.2-.1 0-.1.1-.2.1s-.1.1-.2.1c-.1.1-.2.1-.3.1-.1 0-.1.1-.1.1s-.1 0-.1.1h-.1l.9 2.5s.1 0 .1-.1c0 0 .1 0 .1-.1.1 0 .1-.1.1-.1.1-.1.2-.1.3-.1.1 0 .1-.1.2-.1s.1-.1.2-.1c.2-.1.5-.2.6-.3.2-.1.3-.1.3-.1l-.9-2.3zM95.2 109.8s-.1.1-.3.1c-.2.1-.4.1-.6.2-.2.1-.5.1-.6.2s-.3.1-.3.1l.7 2.5s.1-.1.3-.1c.2-.1.4-.1.7-.2.2-.1.5-.2.7-.2.2-.1.3-.1.3-.1l-.9-2.5zM96.1 112.5s-.1.1-.3.1c-.2.1-.4.1-.7.2-.2.1-.5.2-.7.2-.2.1-.3.1-.3.1l.7 2.5s.1-.1.3-.1c.2-.1.5-.2.7-.2.3-.1.5-.2.7-.2.2-.1.3-.1.3-.1l-.7-2.5zM97.1 115.2s-.1.1-.3.1c-.2.1-.5.2-.7.2-.3.1-.5.2-.7.2-.2.1-.3.1-.3.1l.7 2.5s.2-.1.3-.1c.2-.1.5-.2.8-.2.3-.1.6-.2.8-.3.2-.1.3-.1.3-.1l-.9-2.4zM98.1 117.9s-.2.1-.3.1c-.2.1-.5.2-.8.3s-.6.2-.8.2c-.2.1-.3.1-.3.1l.7 2.5s.2-.1.4-.1c.2-.1.6-.2.9-.3l.9-.3c.2-.1.4-.1.4-.1l-1.1-2.4zM99.1 120.6s-.2.1-.4.1c-.2.1-.6.2-.9.3l-.9.3c-.2.1-.4.1-.4.1l.7 2.5s.2-.1.5-.1c.3-.1.6-.2 1-.3.3-.1.7-.2.9-.3l.4-.2-.9-2.4zM100 123.3l-.4.2c-.2.1-.6.2-.9.3-.3.1-.7.2-1 .3-.3.1-.5.1-.5.1l.7 2.5s.2-.1.5-.1c.3-.1.6-.2 1-.3.3-.1.7-.2 1-.3.3-.1.5-.2.5-.2l-.9-2.5zM111.6 123.9s-.1 0-.1.1c-.1.1-.2.1-.3.2-.1.1-.3.2-.5.3-.2.1-.3.2-.5.3-.3.2-.7.4-1 .6-.3.2-.5.2-.5.2l1.3 2.3s.2-.1.5-.3.7-.4 1-.6l.6-.3c.2-.1.3-.2.5-.3.1-.1.2-.2.3-.2l.1-.1-1.4-2.2zM108.5 125.8s-.1 0-.1.1c-.1.1-.2.1-.3.2-.1.1-.3.2-.5.2-.2.1-.3.2-.5.3-.2.1-.3.2-.5.3-.2.1-.3.2-.5.2-.1.1-.2.1-.3.2l-.1.1 1.1 2.4s.1 0 .1-.1c.1-.1.2-.1.3-.2.2-.1.3-.2.5-.2l.6-.3.6-.3c.2-.1.3-.2.5-.3.2-.1.3-.1.3-.2s.1-.1.1-.1l-1.3-2.3zM105.3 127.4s-.2.1-.5.2-.7.3-1 .5c-.1.1-.2.1-.3.1-.1.1-.2.1-.3.1-.2.1-.3.1-.5.2-.1 0-.1.1-.2.1s-.1.1-.2.1l-.1.1.9 2.5s.1 0 .1-.1c.1 0 .1-.1.2-.1s.1-.1.2-.1c.2-.1.3-.1.5-.2.1-.1.2-.1.3-.1.1-.1.2-.1.3-.1.4-.2.8-.3 1.1-.5.3-.1.5-.2.5-.2l-1-2.5zM102.9 131.2l-.9-2.5s-.2.1-.5.2-.7.2-1.1.3c-.4.1-.8.2-1.1.3-.3.1-.5.1-.5.1l.7 2.5s.2-.1.5-.2.7-.2 1.1-.3c.4-.1.9-.3 1.1-.4.5.1.7 0 .7 0zM106.5 101.7c-.1.1-.1.2-.2.2-.1.1-.2.3-.4.5l-.2.2-.1.1-.1.1-.2.2 2 1.8.2-.2.1-.1.1-.1c.1-.1.2-.2.2-.3.2-.2.3-.4.5-.5l.2-.2.1-.1-2.2-1.6zM105.1 103.2c-.1.1-.1.2-.2.2l-.5.5-.2.2-.2.2-.2.2 1.8 2 .2-.2c.1-.1.2-.1.2-.2l.3-.3.5-.5.2-.2.1-.1-2-1.8zM109.3 107.1l-.2.2-.6.6-.3.3c-.1.1-.2.2-.3.2l-.2.2 1.8 2 .3-.3.3-.3.3-.3.6-.6.2-.2.1-.1-2-1.7zM111.5 109.1c-.1.1-.2.2-.2.3l-.6.6-.3.3-.3.3-.3.3 1.8 2 .3-.3.3-.3.3-.3.6-.6.2-.2.1-.1-1.9-2zM113.5 111.1s0 .1 0 0l-.3.3-.6.6-.3.3-.3.3-.3.3 1.8 2 .3-.3.3-.3c.1-.1.2-.2.4-.3.3-.2.5-.5.7-.7l.2-.2.1-.1-2-1.9zM115.6 113l-.1.1-.2.2-.7.7c-.1.1-.2.2-.4.3l-.3.3-.3.3 1.8 2 .3-.3.3-.3.4-.4c.3-.3.5-.6.7-.7l.2-.2.1-.1-1.8-1.9zM117.7 115l-.1.1c-.1.1-.1.2-.2.2l-.7.7-.4.4-.3.3-.3.3 1.8 2s.2-.1.4-.3c.1-.1.2-.2.4-.3l.4-.4.8-.8.3-.3.1-.1-2.2-1.8zM103.7 104.7l-.2.2-.2.2c-.1.1-.2.2-.3.2l-.1.1-.1.1c-.1.1-.2.1-.2.2-.1.1-.1.1-.2.1l-.1.1 1.7 2.1.1-.1.2-.2c.1-.1.2-.1.2-.2.1-.1.1-.1.2-.1.1-.1.1-.1.2-.1.1-.1.2-.2.3-.2l.2-.2.2-.2-1.9-2zM102.2 105.9l-.2.2c-.1.1-.3.2-.5.4-.2.1-.4.3-.5.3-.2.1-.2.2-.2.2l1.5 2.2s.1-.1.3-.2c.2-.1.3-.2.6-.4.2-.2.4-.3.6-.4.2-.1.2-.2.2-.2l-1.8-2.1zM103.9 108.2l-.2.2c-.2.1-.3.3-.6.4-.2.2-.4.3-.6.4-.2.1-.3.2-.3.2l1.5 2.2s.1-.1.3-.2c.2-.1.4-.3.6-.5.2-.2.5-.3.6-.5.2-.1.3-.2.3-.2l-1.6-2zM105.7 110.5s-.1.1-.3.2c-.2.1-.4.3-.6.5-.2.2-.5.3-.6.5-.2.1-.3.2-.3.2l1.5 2.2s.1-.1.3-.2c.2-.1.5-.3.7-.5.2-.2.5-.3.7-.5.2-.1.3-.2.3-.2l-1.7-2.2zM107.5 112.8s-.1.1-.3.2c-.2.1-.5.3-.7.5s-.5.3-.7.5c-.2.1-.3.2-.3.2l1.5 2.2s.1-.1.3-.2c.2-.1.5-.3.7-.5.3-.2.5-.4.7-.6.2-.2.3-.2.3-.2l-1.5-2.1zM109.2 115s-.1.1-.3.2c-.2.2-.5.3-.7.6-.3.2-.6.4-.7.5-.2.1-.3.2-.3.2l1.5 2.2.4-.2c.2-.2.5-.3.8-.6.3-.2.6-.4.8-.6l.3-.3-1.8-2zM111 117.3l-.3.3c-.2.2-.5.4-.8.6-.3.2-.6.4-.8.6-.2.2-.4.2-.4.2l1.5 2.2s.2-.1.4-.3c.2-.2.6-.4.9-.6.3-.2.6-.5.9-.6.2-.2.4-.3.4-.3l-1.8-2.1zM122.2 114.3l-.1.1c-.1.1-.1.2-.2.3-.2.2-.5.6-.7.9-.1.2-.3.3-.4.5l-.2.2-.2.2c-.2.2-.3.4-.3.4l2 1.8s.2-.2.3-.4l.2-.2s.1-.2.2-.2c.1-.2.3-.3.4-.5.3-.3.6-.7.7-.9.1-.1.2-.2.2-.3l.1-.1-2-1.8zM119.8 117l-.1.1-.3.3-.8.8c-.2.2-.3.3-.5.4-.1.1-.3.2-.4.3-.2.2-.4.3-.4.3l1.8 2 .4-.4c.1-.1.3-.2.4-.4l.5-.5.9-.9.3-.3.1-.1-1.9-1.6zM117.3 119.5s-.2.1-.4.3c-.1.1-.2.2-.4.3-.2.1-.3.3-.5.4-.1.1-.2.1-.2.2-.1.1-.2.1-.2.2-.2.1-.3.2-.4.3-.1.1-.2.2-.3.2s-.1.1-.1.1l1.7 2.1.1-.1c.1-.1.2-.2.3-.2.1-.1.3-.2.5-.3.1-.1.2-.1.2-.2.1-.1.2-.1.2-.2.2-.1.3-.3.5-.4.2-.1.3-.3.4-.3.2-.2.4-.3.4-.3l-1.8-2.1zM114.6 121.8s-.2.1-.4.3c-.2.2-.6.5-.9.7s-.7.5-.9.6c-.2.2-.4.3-.4.3l1.5 2.2s.2-.1.5-.3c.3-.2.6-.5 1-.7.3-.3.7-.5 1-.7.3-.2.5-.3.5-.3l-1.9-2.1z"/><path fill="none" d="M106.9 101.9l17.2 13.6"/><path fill="#FFFFFB" d="M85.3 111.3H84.4c-.2 0-.5-.1-.6-.1H83.5l-.3 2.6H83.5c.2 0 .5.1.7.1.1 0 .2 0 .4.1h.6l.1-2.7zM83.3 111.2s-.1 0-.3-.1c-.1 0-.2 0-.3-.1-.1 0-.2-.1-.3-.1-.2-.1-.5-.1-.6-.1-.1 0-.2 0-.2-.1h-.1l-.5 2.6h.1s.1 0 .2.1c.2.1.5.1.7.1.1 0 .2.1.3.1.1 0 .2.1.3.1.2 0 .3.1.3.1l.4-2.6zM82.5 116.8s-.1 0-.3-.1c-.1 0-.2 0-.3-.1-.1 0-.3-.1-.4-.1-.3-.1-.6-.1-.7-.1-.1 0-.2-.1-.2-.1h-.1l-.5 2.6h.1c.1 0 .2.1.3.1.2.1.5.1.9.2.2 0 .3.1.5.1.1 0 .3.1.4.1.2.1.4.1.4.1l-.1-2.7zM82.2 119.7s-.2 0-.4-.1c-.1 0-.2-.1-.4-.1-.1 0-.3-.1-.5-.1-.3-.1-.6-.1-.9-.2-.1 0-.2-.1-.3-.1h-.1l-.5 2.6h.1c.1 0 .2.1.3.1.2.1.6.1.9.2.2 0 .3.1.5.1s.3.1.4.1c.2.1.4.1.4.1l.5-2.6zM81.8 122.5s-.2 0-.4-.1c-.1 0-.3-.1-.4-.1-.2 0-.3-.1-.5-.1-.3-.1-.7-.1-.9-.2-.1 0-.2-.1-.3-.1h-.1l-.5 2.6h.1s.2.1.3.1c.3.1.6.1 1 .2.2 0 .3.1.5.1s.3.1.5.1c.3.1.5.1.5.1l.2-2.6zM81.5 125.4s-.2 0-.5-.1c-.1 0-.3-.1-.5-.1s-.3-.1-.5-.1c-.3-.1-.7-.1-1-.2-.1 0-.2-.1-.3-.1h-.1l-.5 2.6h.1c.1 0 .2.1.3.1.3.1.7.1 1 .2.2.1.4.1.6.1.2.1.3.1.5.1.3.1.5.1.5.1l.4-2.6zM81.2 128.3s-.2 0-.5-.1c-.2 0-.3-.1-.5-.1s-.3-.1-.6-.1c-.4-.1-.7-.1-1-.2-.1 0-.3-.1-.3-.1h-.1l-.5 2.6h.1c.1 0 .2.1.3.1.3.1.7.1 1.1.2.2.1.4.1.6.1.2.1.3.1.5.1.3.1.5.1.5.1l.4-2.6zM81.3 110.8s-.1 0-.3-.1h-.1c-.1 0-.1 0-.2-.1-.1 0-.2-.1-.3-.1-.1 0-.2-.1-.3-.1s-.2-.1-.3-.1-.2-.1-.2-.1h-.1l-.7 2.5h.1c.1 0 .1.1.2.1s.2.1.3.1c.1.1.2.1.3.1.1.1.2.1.3.1.1 0 .1 0 .2.1.1 0 .1 0 .2.1.2.1.3.1.3.1l.6-2.6zM79.3 110.3s-.1-.1-.3-.1c-.2-.1-.4-.1-.6-.2-.2-.1-.5-.2-.6-.2-.2-.1-.3-.1-.3-.1l-.9 2.5s.1.1.3.1c.2.1.4.2.7.2.2.1.5.2.7.2.2.1.3.1.3.1l.7-2.5zM78.5 113.1s-.1-.1-.3-.1c-.2-.1-.4-.1-.7-.2-.2-.1-.5-.2-.7-.2-.2-.1-.3-.1-.3-.1l-.9 2.5s.1.1.3.1c.2.1.5.2.7.2.3.1.5.2.7.2.2.1.3.1.3.1l.9-2.5zM77.8 115.9s-.1-.1-.3-.1c-.2-.1-.5-.2-.7-.2-.3-.1-.5-.2-.7-.2-.2-.1-.3-.1-.3-.1l-.9 2.5s.2.1.3.1c.2.1.5.2.8.3.3.1.6.2.8.2.2.1.3.1.3.1l.7-2.6zM77 118.6s-.2-.1-.3-.1c-.2-.1-.5-.2-.8-.2-.3-.1-.6-.2-.8-.3-.2-.1-.3-.1-.3-.1l-.9 2.5.4.2c.2.1.6.2.9.3l.9.3c.2.1.4.1.4.1l.5-2.7zM76.2 121.4s-.2-.1-.4-.1-.6-.2-.9-.3l-.9-.3-.4-.2-.9 2.5.4.2c.2.1.6.2.9.3.3.1.7.2.9.3.3.1.5.1.5.1l.8-2.5zM75.4 124.1s-.2-.1-.5-.1c-.3-.1-.6-.2-1-.3-.3-.1-.7-.2-.9-.3l-.4-.2-.9 2.5s.2.1.5.2.6.2 1 .3c.3.1.7.2 1 .3.3.1.5.1.5.1l.7-2.5zM84.4 131.4h-.5c-.2 0-.3 0-.5-.1-.2 0-.4-.1-.6-.1-.4-.1-.8-.1-1.1-.1-.2 0-.3-.1-.3-.1h-.1l-.3 2.6h.2c.1 0 .2 0 .4.1.3.1.7.1 1.2.1.2 0 .5.1.6.1.2 0 .4 0 .6.1.3 0 .5.1.5.1l-.1-2.7zM80.8 131.1s-.2 0-.5-.1c-.2 0-.3-.1-.5-.1-.2-.1-.4-.1-.6-.1-.4-.1-.8-.1-1.1-.2-.2 0-.3-.1-.3-.1-.1 0-.1-.1-.1-.1l-.5 2.6s.1 0 .2.1c.1 0 .2.1.4.1.3.1.7.1 1.2.2.2.1.5.1.6.1.2.1.4.1.6.1.3.1.5.1.5.1l.1-2.6zM77.2 130.5s-.2-.1-.5-.1c-.1 0-.2-.1-.2-.1-.1 0-.2-.1-.3-.1-.2-.1-.4-.1-.6-.1-.2-.1-.4-.1-.6-.2-.2-.1-.3-.1-.5-.1-.2-.1-.3-.1-.3-.1-.1 0-.1-.1-.1-.1l-.7 2.5s.1 0 .2.1c.1 0 .2.1.4.1.2.1.3.1.5.1.2.1.4.1.6.2.2.1.4.1.6.2.1 0 .2.1.3.1s.2.1.3.1c.3.1.5.1.5.1l.4-2.6zM73 132.2l.7-2.5s-.2-.1-.5-.2-.7-.2-1.1-.3c-.4-.1-.8-.3-1.1-.3-.3-.1-.5-.2-.5-.2l-.9 2.5s.2.1.5.2.7.2 1.1.4c.4.1.9.3 1.1.3.5.1.7.1.7.1zM93.3 110.4c-.1 0-.2.1-.3.1-.1 0-.2.1-.3.1-.1 0-.2.1-.3.1-.1 0-.2.1-.3.1-.1 0-.1 0-.2.1h-.1c-.2.1-.3.1-.3.1l.5 2.6s.1 0 .3-.1c.1 0 .1 0 .2-.1.1 0 .1 0 .2-.1.1 0 .2-.1.3-.1.2-.1.5-.1.7-.2.1 0 .2-.1.2-.1h.1l-.7-2.5zM91.3 110.9s-.1 0-.3.1c-.2 0-.4.1-.6.1-.1 0-.2.1-.3.1-.1 0-.2 0-.3.1-.2 0-.3.1-.3.1l.3 2.6s.1 0 .3-.1c.1 0 .2 0 .3-.1.1 0 .2-.1.3-.1.2-.1.5-.1.7-.1.2-.1.3-.1.3-.1l-.4-2.6zM92.4 116.5s-.1.1-.3.1c-.2.1-.5.1-.7.1-.1 0-.3.1-.4.1-.1 0-.2.1-.3.1-.2 0-.3.1-.3.1l.3 2.6s.2 0 .4-.1c.1 0 .2 0 .4-.1.1 0 .3-.1.5-.1.3-.1.6-.1.9-.1.2-.1.4-.1.4-.1l-.9-2.6zM92.9 119.4s-.2.1-.4.1c-.2.1-.5.1-.9.1-.2 0-.3.1-.5.1-.1 0-.3.1-.4.1-.2 0-.4.1-.4.1l.3 2.6s.2 0 .4-.1c.1 0 .3-.1.4-.1.2 0 .3-.1.5-.1.3-.1.6-.1.9-.2.2-.1.4-.1.4-.1l-.3-2.5zM93.4 122.2s-.2.1-.4.1c-.2.1-.6.1-.9.2-.2 0-.3.1-.5.1s-.3.1-.4.1c-.2.1-.4.1-.4.1l.3 2.6s.2 0 .5-.1c.1 0 .3-.1.5-.1s.3-.1.5-.1c.3-.1.7-.1 1-.2.3-.1.5-.1.5-.1l-.7-2.6zM94 125s-.2.1-.5.1c-.3.1-.6.1-1 .2-.2 0-.3.1-.5.1s-.3.1-.5.1c-.3.1-.5.1-.5.1l.3 2.6s.2 0 .5-.1c.2 0 .3-.1.5-.1s.3-.1.6-.1c.4-.1.7-.1 1-.2.3-.1.5-.1.5-.1L94 125zM94.5 127.8s-.2.1-.5.1c-.3.1-.7.1-1 .2-.2 0-.4.1-.6.1-.2 0-.3.1-.5.1-.3.1-.5.1-.5.1l.3 2.6s.2 0 .5-.1c.2 0 .3-.1.5-.1s.4-.1.6-.1c.4-.1.8-.1 1.1-.2.3-.1.5-.1.5-.1l-.4-2.6zM89.3 111.2H89s-.2 0-.3.1h-1.2l.1 2.6H89c.1 0 .2 0 .3-.1H89.6l-.3-2.6zM87.3 111.3h-1.8l-.1 2.6h2l-.1-2.6zM87.4 114.2h-2l-.1 2.6h2l.1-2.6zM87.5 117.1h-2l-.1 2.6H88l-.5-2.6zM87.6 119.9H85l-.1 2.6h2.6v-2.6zM87.7 122.8h-2.6l-.1 2.6h3l-.3-2.6zM87.8 125.7h-3l-.1 2.6h3.2l-.1-2.6zM98.6 129.8s-.1 0-.1.1c-.1 0-.2.1-.3.1-.3.1-.7.2-1.1.3-.2.1-.4.1-.6.1-.1 0-.2.1-.3.1-.1 0-.2.1-.2.1-.3.1-.5.1-.5.1l.5 2.6s.2-.1.5-.1c.1 0 .2-.1.3-.1.1 0 .2-.1.3-.1.2-.1.4-.1.6-.1.4-.1.9-.2 1.1-.3.2-.1.3-.1.4-.1.1 0 .2-.1.2-.1l-.8-2.6zM95.1 130.7s-.2.1-.5.1c-.3.1-.7.1-1.1.2-.2.1-.4.1-.6.1-.2.1-.3.1-.5.1-.3.1-.5.1-.5.1l.3 2.6s.2 0 .5-.1c.2 0 .3-.1.6-.1.2-.1.4-.1.6-.1.5-.1.9-.2 1.2-.2.3-.1.5-.1.5-.1l-.5-2.6zM91.5 131.2h-.1c-.1 0-.2 0-.3.1-.2 0-.3.1-.5.1s-.4.1-.6.1-.4.1-.6.1h-1l.1 2.6h1.2s.4-.1.6-.1.5-.1.6-.1c.2 0 .4-.1.6-.1.2 0 .3-.1.4-.1h.2l-.6-2.6zM87.9 131.4h-3.2l-.1 2.6H88.1l-.2-2.6z"/><path fill="none" d="M93.5 110.8l5.9 21.1"/><path fill="#FFFFFB" d="M70.5 105.8c-.1-.1-.2-.1-.2-.2-.1-.1-.3-.2-.5-.4l-.2-.2-.1-.1-.1-.1-.2-.2-1.8 2 .2.2.1.1.1.1c.1.1.2.2.3.2.2.2.4.3.5.5l.2.2.1.1 1.6-2.2zM68.9 104.4c-.1-.1-.2-.1-.2-.2l-.5-.5-.2-.2-.2-.2-.2-.2-2 1.8.2.2c.1.1.1.2.2.2l.3.3.5.5.2.2.1.1 1.8-2zM65 108.6l-.2-.2-.6-.6-.3-.3c-.1-.1-.2-.2-.2-.3l-.2-.2-2 1.8.3.3.3.3.3.3.6.6.2.2.1.1 1.7-2zM63.1 110.7c-.1-.1-.2-.2-.3-.2l-.6-.6-.3-.3-.3-.3-.3-.3-2 1.8.3.3.3.3.3.3.6.6.2.2.1.1 2-1.9zM61.1 112.8s-.1 0 0 0l-.3-.3-.6-.6-.3-.3-.3-.3-.3-.3-2 1.8.3.3.3.3c.1.1.2.2.3.4.2.3.5.5.7.7l.2.2.1.1 1.9-2zM59.1 114.9l-.1-.1-.2-.2-.7-.7c-.1-.1-.2-.2-.3-.4l-.3-.3-.3-.3-2 1.8.3.3.3.3.4.4c.3.3.6.5.7.7l.2.2.1.1 1.9-1.8zM57.2 117l-.1-.1c-.1-.1-.2-.1-.2-.2l-.7-.7-.4-.4-.3-.3-.3-.3-2 1.8s.1.2.3.4c.1.1.2.2.3.4.1.1.3.3.4.5l.8.8.3.3.1.1 1.8-2.3zM67.5 103l-.2-.2-.2-.2c-.1-.1-.2-.2-.2-.3l-.1-.1-.1-.1c-.1-.1-.1-.2-.2-.2-.1-.1-.1-.1-.1-.2l-.1-.1-2.1 1.7.1.1.2.2c.1.1.1.2.2.2.1.1.1.1.1.2.2-.1.2 0 .2 0 .1.1.2.2.2.3l.2.2.2.2 1.9-1.7zM66.2 101.5l-.2-.2c-.1-.1-.2-.3-.4-.5-.1-.2-.3-.4-.3-.5-.1-.2-.2-.2-.2-.2l-2.2 1.5s.1.1.2.3c.1.2.2.3.4.6.2.2.3.4.4.6.1.2.2.2.2.2l2.1-1.8zM64 103.2l-.2-.2c-.1-.2-.3-.3-.4-.6-.2-.2-.3-.4-.4-.6-.1-.2-.2-.3-.2-.3l-2.2 1.5s.1.1.2.3.3.4.5.6c.2.2.3.5.5.6.1.2.2.3.2.3l2-1.6zM61.7 105s-.1-.1-.2-.3c-.1-.2-.3-.4-.5-.6-.2-.2-.3-.5-.5-.6s-.2-.3-.2-.3l-2.2 1.5s.1.1.2.3c.1.2.3.5.5.7.2.2.3.5.5.7.1.2.2.3.2.3l2.2-1.7zM59.5 106.7s-.1-.1-.2-.3c-.1-.2-.3-.5-.5-.7s-.3-.5-.5-.7c-.1-.2-.2-.3-.2-.3l-2.2 1.5s.1.1.2.3c.1.2.3.5.5.7s.4.5.6.7c.2.2.2.3.2.3l2.1-1.5zM57.2 108.5s-.1-.1-.2-.3c-.2-.2-.3-.5-.6-.7-.2-.3-.4-.6-.5-.7-.1-.2-.2-.3-.2-.3l-2.2 1.5.2.4c.2.2.3.5.6.8.2.3.4.6.6.8l.3.3 2-1.8zM54.9 110.3l-.3-.3c-.2-.2-.4-.5-.6-.8-.2-.3-.4-.6-.6-.8-.2-.2-.2-.4-.2-.4l-2.2 1.5s.1.2.3.4.4.6.6.9.5.6.6.9c.2.2.3.4.3.4l2.1-1.8zM57.9 121.4l-.1-.1c-.1-.1-.2-.1-.3-.2-.2-.2-.6-.5-.9-.7-.2-.1-.3-.3-.5-.4l-.2-.2-.2-.2c-.2-.2-.4-.3-.4-.3l-1.8 2s.2.2.4.3l.2.2c.1.1.2.1.2.2.2.1.3.3.5.4.3.3.7.6.9.7.1.1.2.2.3.2l.1.1 1.8-2zM55.2 119.1l-.1-.1-.3-.3-.8-.8c-.2-.2-.3-.3-.4-.5-.1-.1-.2-.3-.3-.4-.2-.2-.3-.4-.3-.4l-2 1.8.4.4c.1.1.2.3.4.4l.5.5.9.9.3.3.1.1 1.6-1.9zM52.7 116.5s-.1-.2-.3-.4c-.1-.1-.2-.2-.3-.4-.1-.2-.3-.3-.4-.5-.1-.1-.1-.2-.2-.2-.1-.1-.1-.2-.2-.2-.1-.2-.2-.3-.3-.4-.1-.1-.2-.2-.2-.3l-.1-.1-2.1 1.7.1.1c.1.1.2.2.2.3.1.1.2.3.3.5.1.1.1.2.2.2.1.1.1.2.2.2.1.2.3.3.4.5.1.2.3.3.3.4.2.2.3.4.3.4l2.1-1.8zM48.3 115.5l2.1-1.6s-.1-.2-.3-.4c-.2-.2-.5-.6-.7-.9-.2-.3-.5-.7-.6-.9-.2-.2-.3-.4-.3-.4l-2.2 1.5s.1.2.3.5c.2.3.5.6.7 1 .3.3.5.7.7 1 .1 0 .3.2.3.2zM77.4 109.7c-.1 0-.2-.1-.2-.1-.1-.1-.2-.1-.3-.1-.1-.1-.2-.1-.3-.1-.1-.1-.2-.1-.3-.1-.1 0-.1-.1-.1-.1-.1 0-.1-.1-.1-.1-.2-.1-.3-.1-.3-.1l-1.1 2.4s.1.1.3.1c.1 0 .1.1.1.1.1 0 .1.1.2.1.1.1.2.1.3.2.1.1.2.1.3.1.1.1.2.1.3.1.1.1.2.1.2.1l.1.1.9-2.6zM75.6 108.9c-.1-.1-.2-.1-.2-.2-.2-.1-.3-.2-.6-.3-.1-.1-.2-.1-.3-.2-.1-.1-.2-.1-.3-.1l-.2-.1-1.3 2.3s.1.1.3.2c.1.1.2.1.3.2.1.1.2.1.3.2.2.1.5.2.6.3.1.1.2.1.2.1.1 0 .1.1.1.1l1.1-2.5zM73.1 114.1s-.1 0-.1-.1c-.1 0-.1-.1-.2-.1-.2-.1-.5-.2-.7-.3-.1-.1-.2-.1-.3-.2-.1-.1-.2-.1-.3-.2-.2-.1-.3-.2-.3-.2l-1.3 2.3s.1.1.3.2c.1.1.2.1.3.2.1.1.3.1.4.2.3.2.6.3.7.4.1.1.2.1.2.1l.1.1 1.2-2.4zM71.9 116.7s-.1 0-.1-.1c-.1-.1-.2-.1-.2-.1-.2-.1-.5-.2-.7-.4-.1-.1-.3-.1-.4-.2-.1-.1-.2-.1-.3-.2-.2-.1-.3-.2-.3-.2l-1.3 2.3s.2.1.3.2c.1.1.2.1.4.2.1.1.3.2.5.2.3.2.6.3.8.4.1.1.2.1.3.1l.1.1.9-2.3zM70.7 119.3s-.1 0-.1-.1c-.1-.1-.2-.1-.3-.1-.2-.1-.5-.2-.8-.4-.2-.1-.3-.2-.5-.2-.1-.1-.3-.2-.4-.2-.2-.1-.3-.2-.3-.2l-1.3 2.3.4.2c.1.1.2.1.4.2s.3.2.5.2c.3.2.6.3.9.5.1.1.2.1.3.1l.1.1 1.1-2.4zM69.5 121.9s-.1 0-.1-.1c-.1-.1-.2-.1-.3-.1-.2-.1-.6-.3-.9-.5-.2-.1-.3-.2-.5-.2-.2-.1-.3-.2-.4-.2l-.4-.2-1.3 2.3.4.2c.1.1.3.2.5.2.2.1.3.2.5.3.3.2.7.3 1 .5.1.1.2.1.3.2l.1.1 1.1-2.5zM68.2 124.5s-.1 0-.1-.1c-.1-.1-.2-.1-.3-.2-.3-.1-.6-.3-1-.5-.2-.1-.3-.2-.5-.3-.2-.1-.3-.2-.5-.2l-.4-.2-1.3 2.3s.2.1.5.2c.1.1.3.2.5.2.2.1.3.2.5.3.3.2.7.3 1 .5.1.1.2.1.3.2l.1.1 1.2-2.3zM73.8 108l-.2-.2c-.1-.1-.2-.1-.2-.2-.1-.1-.2-.1-.3-.2-.2-.1-.4-.2-.5-.3-.2-.1-.2-.2-.2-.2l-1.5 2.2s.1.1.3.2c.2.1.4.2.6.4.1.1.2.1.3.2.1.1.2.1.3.2.2.1.3.2.3.2l1.1-2.3zM72.1 106.9l-.2-.2c-.1-.1-.2-.1-.2-.2-.1-.1-.2-.1-.3-.2-.2-.1-.3-.3-.5-.4l-.2-.2-1.7 2.1.2.2c.2.1.3.3.6.4.1.1.2.2.3.2.1.1.2.1.3.2.2.1.3.2.3.2l1.4-2.1zM70.5 109.3s-.1-.1-.3-.2c-.1-.1-.2-.1-.3-.2-.1-.1-.2-.2-.3-.2-.2-.2-.4-.3-.6-.4-.2-.1-.2-.2-.2-.2l-1.7 2.1s.1.1.3.2c.2.1.4.3.6.5.1.1.2.2.3.2.1.1.2.2.3.2.2.1.3.2.3.2l1.6-2.2zM68.9 111.7s-.1-.1-.3-.2c-.1-.1-.2-.1-.3-.2-.1-.1-.2-.2-.3-.2-.2-.2-.5-.3-.6-.5-.2-.1-.3-.2-.3-.2l-1.7 2.1s.1.1.3.2.4.3.7.5l.3.3c.1.1.2.2.3.2.2.1.3.2.3.2l1.6-2.2zM67.3 114.1s-.1-.1-.3-.2c-.1-.1-.2-.2-.3-.2l-.3-.3c-.2-.2-.5-.3-.7-.5-.2-.2-.3-.2-.3-.2l-1.7 2.1.3.3c.2.2.5.3.7.6.1.1.3.2.4.3.1.1.2.2.3.2.2.1.3.2.3.2l1.6-2.3zM65.7 116.4s-.1-.1-.3-.2c-.1-.1-.2-.2-.3-.2-.1-.1-.3-.2-.4-.3-.3-.2-.5-.4-.7-.6l-.3-.3-1.7 2.1.3.3c.2.2.5.4.8.6.2.1.3.2.4.3.1.1.3.2.4.3.2.2.3.2.3.2l1.5-2.2zM64 118.8s-.2-.1-.3-.2c-.1-.1-.2-.2-.4-.3-.1-.1-.3-.2-.5-.3-.3-.2-.6-.5-.8-.6l-.3-.3-1.7 2.1s.2.1.4.3c.2.2.5.4.9.6.2.1.3.2.5.3.2.1.3.2.4.3.2.2.4.3.4.3l1.4-2.2zM70.4 128.5s-.1 0-.1-.1-.2-.1-.3-.1c-.2-.1-.3-.1-.5-.2s-.4-.2-.6-.2-.4-.2-.6-.2c-.1-.1-.2-.1-.2-.1-.1-.1-.2-.1-.2-.1-.3-.1-.5-.2-.5-.2l-1.1 2.4s.2.1.5.2c.1.1.2.1.2.1.1.1.2.1.3.1.2.1.4.2.6.2.2.1.4.2.6.2.2.1.3.2.5.2.2.1.3.1.3.1l.1.1 1-2.4zM67 127.1s-.1 0-.1-.1-.2-.1-.3-.2c-.3-.1-.6-.3-1-.5-.2-.1-.3-.2-.5-.3-.2-.1-.3-.2-.5-.2-.3-.2-.5-.2-.5-.2l-1.3 2.3s.2.1.5.3c.2.1.3.2.5.3l.6.3c.4.2.8.4 1.1.5.2.1.3.1.3.2l.1.1 1.1-2.5zM63.8 125.5s-.2-.1-.5-.3c-.1-.1-.3-.2-.5-.3-.2-.1-.3-.2-.5-.3-.3-.2-.7-.5-1-.6s-.5-.3-.5-.3l-1.5 2.2s.2.1.5.3c.3.2.6.4 1 .6l.6.3c.2.1.3.2.5.3.3.2.5.3.5.3l1.4-2.2zM60.8 123.6s-.2-.1-.4-.3c-.1-.1-.3-.2-.5-.3-.2-.1-.3-.2-.5-.3-.3-.2-.7-.5-.9-.7-.2-.2-.4-.3-.4-.3l-1.7 2.1s.2.1.4.3c.3.2.6.5 1 .7.2.1.3.2.5.4.2.1.3.2.5.3.3.2.5.3.5.3l1.5-2.2z"/><path fill="none" d="M77.4 110.1l-7.6 20.6"/><path fill="#FFFFFB" d="M61.7 92.5c0-.1-.1-.2-.1-.3 0-.1-.1-.2-.1-.3s-.1-.2-.1-.3c0-.1-.1-.2-.1-.3 0-.1 0-.1-.1-.2V91c-.1-.2-.1-.3-.1-.3l-2.6.5s0 .1.1.3c0 .1 0 .1.1.2 0 .1 0 .1.1.2 0 .1.1.2.1.3.1.2.1.5.2.7 0 .1.1.2.1.2v.1l2.5-.7zM61.3 90.5s0-.1-.1-.3c0-.2-.1-.4-.1-.6 0-.1-.1-.2-.1-.3 0-.1 0-.2-.1-.3 0-.2-.1-.3-.1-.3l-2.5.3s0 .1.1.3c0 .1 0 .2.1.3 0 .1.1.2.1.3.1.2.1.5.1.7.1.2.1.3.1.3l2.5-.4zM55.7 91.6s-.1-.1-.1-.3c-.1-.2-.1-.5-.1-.7 0-.1-.1-.3-.1-.4 0-.1-.1-.2-.1-.3 0-.2-.1-.3-.1-.3l-2.6.3s0 .2.1.4c0 .1 0 .2.1.4 0 .1.1.3.1.5.1.3.1.6.1.9.1.2.1.4.1.4l2.6-.9zM52.9 92.2s-.1-.2-.1-.4c-.1-.2-.1-.5-.1-.9 0-.2-.1-.3-.1-.5 0-.1-.1-.3-.1-.4 0-.2-.1-.4-.1-.4l-2.5.4s0 .2.1.4c0 .1.1.3.1.4 0 .2.1.3.1.5.1.3.1.6.2.9.1.2.1.4.1.4l2.4-.4zM50 92.7s-.1-.2-.1-.4c-.1-.2-.1-.6-.2-.9 0-.2-.1-.3-.1-.5s-.1-.3-.1-.4c-.1-.2-.1-.4-.1-.4l-2.6.3s0 .2.1.5c0 .1.1.3.1.5s.1.3.1.5c.1.3.1.7.2 1 .1.3.1.5.1.5l2.6-.7zM47.2 93.2s-.1-.2-.1-.5c-.1-.3-.1-.6-.2-1 0-.2-.1-.3-.1-.5s-.1-.3-.1-.5c-.1-.3-.1-.5-.1-.5l-2.6.3s0 .2.1.5c0 .2.1.3.1.5s.1.3.1.6c.1.4.1.7.2 1 .1.3.1.5.1.5l2.6-.4zM44.4 93.8s-.1-.2-.1-.5c-.1-.3-.1-.7-.2-1 0-.2-.1-.4-.1-.6 0-.2-.1-.3-.1-.5-.1-.3-.1-.5-.1-.5l-2.6.3s0 .2.1.5c0 .2.1.3.1.5s.1.4.1.6c.1.4.1.8.2 1.1.1.3.1.5.1.5l2.6-.4zM61 88.6v-.3s0-.2-.1-.3v-1.2l-2.6.1v1.4c0 .1 0 .2.1.3V88.9l2.6-.3zM60.8 86.6v-1.8l-2.6-.1v2l2.6-.1zM58 86.6v-2l-2.6-.1v2l2.6.1zM55.1 86.8v-2l-2.6-.1v2.6l2.6-.5zM52.2 86.9v-2.6l-2.6-.1v2.6h2.6zM49.4 86.9v-2.6l-2.6-.1v3l2.6-.3zM46.5 87v-3l-2.6-.1v3.2l2.6-.1zM42.3 97.8s0-.1-.1-.1c0-.1-.1-.2-.1-.3-.1-.3-.2-.7-.3-1.1-.1-.2-.1-.4-.1-.6 0-.1-.1-.2-.1-.3 0-.1-.1-.2-.1-.2-.1-.3-.1-.5-.1-.5l-2.4.5s.1.2.1.5c0 .1.1.2.1.3 0 .1.1.2.1.3.1.2.1.4.1.6.1.4.2.9.3 1.1.1.2.1.3.1.4 0 .1.1.2.1.2l2.4-.8zM41.5 94.3s-.1-.2-.1-.5c-.1-.3-.1-.7-.2-1.1-.1-.2-.1-.4-.1-.6-.1-.2-.1-.3-.1-.5v-.5l-2.6.3s0 .2.1.5c0 .2.1.3.1.6.1.2.1.4.1.6.1.5.2.9.2 1.2.1.3.1.5.1.5l2.5-.5zM41 90.8v-.1c0-.1 0-.2-.1-.3 0-.2-.1-.3-.1-.5s-.1-.4-.1-.6c0-.2-.1-.4-.1-.6v-1l-2.6.1V89s.1.4.1.6c0 .2.1.5.1.6 0 .2.1.4.1.6 0 .2.1.3.1.4v.2l2.6-.6zM38.1 87.3l2.6-.1V84l-2.6-.1V87.3zM65.1 99.8c-.1-.1-.1-.2-.2-.2s-.1-.2-.2-.2c-.1-.1-.1-.2-.2-.3l-.3-.6-.1-.2-2.3 1.3s.1.1.2.3l.3.6c.1.1.1.2.2.3.1.1.1.2.2.3.1.1.1.2.1.2l.1.1 2.2-1.6zM64 98.1c-.1-.1-.1-.2-.2-.2s-.1-.2-.1-.3c-.1-.1-.1-.2-.2-.3-.1-.1-.1-.2-.2-.3-.1-.1-.1-.2-.1-.3-.1-.1-.1-.1-.1-.2s-.1-.1-.1-.1l-2.4 1.1s0 .1.1.1c0 .1.1.1.1.2.1.1.1.2.1.3.1.1.1.2.2.3.1.1.1.2.2.3.1.1.1.2.2.3.1.1.1.2.1.2 0 .1.1.1.1.1l2.3-1.2zM59 100.9s0-.1 0 0c-.1-.1-.1-.2-.2-.3-.1-.1-.1-.2-.2-.3-.1-.1-.1-.2-.2-.3-.1-.1-.1-.2-.2-.3-.1-.1-.1-.2-.2-.3.1-.3.1-.4 0-.4 0-.1-.1-.1-.1-.1l-2.4 1.1s0 .1.1.1c.1.1.1.2.1.2.1.1.1.2.2.3.1.1.1.3.2.4.1.1.1.3.2.4.1.1.1.2.2.3s.1.2.1.2l.1.1 2.3-1.1zM56.5 102.3s0-.1-.1-.1c-.1-.1-.1-.2-.1-.2-.1-.1-.1-.2-.2-.3-.1-.1-.1-.3-.2-.4-.1-.1-.1-.3-.2-.4-.1-.1-.1-.2-.2-.3-.1-.1-.1-.2-.1-.2l-.1-.1-2.4 1.1s0 .1.1.1c.1.1.1.2.1.3.1.1.1.2.2.4.1.1.2.3.2.5.1.2.2.3.2.5.1.1.1.3.2.4.1.1.1.2.1.3l.1.1 2.4-1.7zM53.9 103.6s0-.1-.1-.1c-.1-.1-.1-.2-.2-.3-.1-.1-.1-.2-.2-.4-.1-.1-.2-.3-.2-.5-.1-.2-.2-.3-.2-.5-.1-.1-.1-.3-.2-.4-.1-.1-.1-.2-.1-.3l-.1-.1-2.4 1.1s0 .1.1.1c.1.1.1.2.1.3.1.1.1.3.2.4.1.2.2.3.2.5.1.2.2.3.2.5.1.2.2.3.2.4.1.1.1.2.2.3l.1.1 2.4-1.1zM51.4 105s0-.1-.1-.1-.1-.2-.2-.3c-.1-.1-.1-.3-.2-.4-.1-.2-.2-.3-.2-.5-.1-.2-.2-.3-.2-.5-.1-.2-.1-.3-.2-.4-.1-.1-.1-.2-.1-.3l-.1-.1-2.4 1.1s0 .1.1.1c.1.1.1.2.2.3.1.1.1.3.2.5s.2.3.2.5c.1.2.2.3.2.5.1.2.2.3.2.5.1.1.1.2.2.3l.1.1 2.3-1.3zM48.9 106.4s0-.1-.1-.1c-.1-.1-.1-.2-.2-.3-.1-.1-.2-.3-.2-.5-.1-.2-.2-.3-.3-.5-.1-.2-.2-.3-.2-.5-.1-.2-.2-.3-.2-.5-.1-.1-.1-.2-.2-.3l-.1-.1-2.4 1.1s0 .1.1.1c.1.1.1.2.2.3.1.1.2.3.2.5.1.2.2.3.3.5.1.2.2.3.3.5.1.2.2.3.2.5.1.1.1.2.2.3l.1.1 2.3-1.1zM63.1 96.3s-.1-.1-.1-.3c-.1-.2-.2-.3-.2-.6 0-.1-.1-.1-.1-.2s-.1-.1-.1-.2c-.1-.1-.1-.2-.1-.3 0-.1-.1-.1-.1-.1 0-.1 0-.1-.1-.1v-.1L60 95.5s0 .1.1.1c0 0 0 .1.1.1 0 .1.1.1.1.1.1.1.1.2.1.3 0 .1.1.1.1.2s.1.1.1.2c.1.2.2.5.3.6.1.2.1.3.1.3l2.1-1.1zM62.4 94.4s-.1-.1-.1-.3c-.1-.2-.1-.4-.2-.6-.1-.2-.1-.5-.2-.6-.1-.2-.1-.3-.1-.3l-2.5.7s.1.1.1.3c.1.2.1.4.2.7.1.2.2.5.2.7.1.2.1.3.1.3l2.5-.9zM59.7 95.4s-.1-.1-.1-.3c-.1-.2-.1-.4-.2-.7-.1-.2-.2-.5-.2-.7-.1-.2-.1-.3-.1-.3l-2.5.7s.1.1.1.3c.1.2.2.5.2.7.1.3.2.5.2.7.1.2.1.3.1.3l2.5-.7zM56.9 96.4s-.1-.1-.1-.3c-.1-.2-.2-.5-.2-.7s-.2-.5-.2-.7c-.1-.2-.1-.3-.1-.3l-2.5.7s.1.2.1.3c.1.2.2.5.2.8.1.3.2.6.3.8.1.2.1.3.1.3l2.4-.9zM54.2 97.4s-.1-.2-.1-.3c-.1-.2-.2-.5-.3-.8s-.2-.6-.2-.8c-.1-.2-.1-.3-.1-.3l-2.5.6s.1.2.1.4c.1.2.2.6.3.9l.3.9c.1.2.1.4.1.4l2.4-1zM51.5 98.4s-.1-.2-.1-.4c-.1-.2-.2-.6-.3-.9l-.3-.9c-.1-.2-.1-.4-.1-.4l-2.5.7s.1.2.1.5c.1.3.2.6.3 1 .1.3.2.7.3.9l.2.4 2.4-.9zM48.8 99.3l-.2-.4c-.1-.2-.2-.6-.3-.9-.1-.3-.2-.7-.3-1-.1-.3-.1-.5-.1-.5l-2.5.7s.1.2.1.5c.1.3.2.6.3 1 .1.3.2.7.3 1s.2.5.2.5l2.5-.9zM48.3 110.9s0-.1-.1-.1c-.1-.1-.1-.2-.2-.3-.1-.1-.2-.3-.3-.5-.1-.2-.2-.3-.3-.5-.2-.3-.4-.7-.6-1-.2-.3-.2-.5-.2-.5l-2.3 1.3s.1.2.3.5c.2.3.4.7.6 1l.3.6c.1.2.2.3.3.5.1.1.2.2.2.3l.1.1 2.2-1.4zM46.4 107.8s0-.1-.1-.1c-.1-.1-.1-.2-.2-.3-.1-.1-.2-.3-.2-.5-.1-.2-.2-.3-.3-.5-.1-.2-.2-.3-.3-.5-.1-.2-.2-.3-.2-.5-.1-.1-.1-.2-.2-.3l-.1-.1-2.4 1.1s0 .1.1.1c.1.1.1.2.2.3.1.2.2.3.2.5l.3.6.3.6c.1.2.2.3.3.5.1.2.1.3.2.3l.1.1 2.3-1.3zM44.8 104.6s-.1-.2-.2-.5-.3-.7-.5-1c-.1-.1-.1-.2-.1-.3-.1-.1-.1-.2-.1-.3-.1-.2-.1-.3-.2-.5 0-.1-.1-.1-.1-.2s-.1-.1-.1-.2l-.1-.1-2.5.9s0 .1.1.1c0 .1.1.1.1.2s.1.1.1.2c.1.2.1.3.2.5.1.1.1.2.1.3.1.1.1.2.1.3.2.4.3.8.5 1.1s.2.5.2.5l2.5-1zM43.4 101.3s-.1-.2-.2-.5-.2-.7-.3-1.1c-.1-.4-.2-.8-.3-1.1-.1-.3-.1-.5-.1-.5l-2.5.7s.1.2.2.5.2.7.3 1.1c.1.4.3.9.4 1.1s.2.5.2.5l2.3-.7z"/><path fill="none" d="M64.8 100.1l-18.3 12.2"/></svg>