<?xml version="1.0" encoding="UTF-8" standalone="no"?>
<!-- Created with Inkscape (http://www.inkscape.org/) -->

<svg
   xmlns:dc="http://purl.org/dc/elements/1.1/"
   xmlns:cc="http://creativecommons.org/ns#"
   xmlns:rdf="http://www.w3.org/1999/02/22-rdf-syntax-ns#"
   xmlns:svg="http://www.w3.org/2000/svg"
   xmlns="http://www.w3.org/2000/svg"
   xmlns:sodipodi="http://sodipodi.sourceforge.net/DTD/sodipodi-0.dtd"
   xmlns:inkscape="http://www.inkscape.org/namespaces/inkscape"
   width="57.999996"
   height="90.000008"
   id="svg4957"
   version="1.1"
   inkscape:version="0.48.4 r9939"
   sodipodi:docname="New document 16">
  <defs
     id="defs4959" />
  <sodipodi:namedview
     id="base"
     pagecolor="#ffffff"
     bordercolor="#666666"
     borderopacity="1.0"
     inkscape:pageopacity="0.0"
     inkscape:pageshadow="2"
     inkscape:zoom="6.7999994"
     inkscape:cx="28.999998"
     inkscape:cy="45.000004"
     inkscape:document-units="px"
     inkscape:current-layer="layer1"
     showgrid="false"
     fit-margin-top="0"
     fit-margin-left="0"
     fit-margin-right="0"
     fit-margin-bottom="0"
     inkscape:window-width="1043"
     inkscape:window-height="791"
     inkscape:window-x="1064"
     inkscape:window-y="392"
     inkscape:window-maximized="0" />
  <metadata
     id="metadata4962">
    <rdf:RDF>
      <cc:Work
         rdf:about="">
        <dc:format>image/svg+xml</dc:format>
        <dc:type
           rdf:resource="http://purl.org/dc/dcmitype/StillImage" />
        <dc:title></dc:title>
      </cc:Work>
    </rdf:RDF>
  </metadata>
  <g
     inkscape:label="Layer 1"
     inkscape:groupmode="layer"
     id="layer1"
     transform="translate(-159.05264,-572.02563)">
    <path
       id="path4654-2"
       style="fill:#ffc705;fill-opacity:1;stroke:none"
       d="m 161.71228,599.93661 c -0.29497,-0.92444 -1.07349,-7.87681 -1.22796,-10.96593 -0.24496,-4.89839 0.75641,-8.3745 2.97363,-10.32257 1.1218,-0.98562 1.96314,-1.24864 3.64097,-1.13821 1.85359,0.12198 2.61456,0.37211 3.47111,1.1409 0.49034,0.44012 0.7977,0.9369 1.10035,1.77847 0.45067,1.25321 0.52744,1.83951 0.24085,1.83951 -0.0985,0 -0.54283,-0.3341 -0.98742,-0.74242 -1.59482,-1.46477 -1.84598,-1.57836 -3.47011,-1.56958 -1.70657,0.009 -2.48576,0.32939 -3.47893,1.42947 -1.53556,1.70083 -1.85886,5.32905 -1.08068,12.12782 0.24815,2.16807 0.39957,4.17865 0.33649,4.46795 -0.11315,0.51879 -0.94346,1.86931 -1.27558,2.07471 -0.0939,0.058 -0.20312,0.004 -0.24272,-0.12012 l 0,0 z m 9.777,-25.92314 c -1.62445,-0.14834 -2.52648,-0.4225 -2.38027,-0.73416 0.62064,-1.323 5.22462,-1.21641 20.00941,-1.25161 12.29921,-0.0293 15.83604,0.25668 16.43756,0.58615 1.25601,0.68796 0.59931,1.03467 -2.49525,1.31736 -2.61803,0.23914 -29.09778,0.30814 -31.57145,0.0823 z m 40.86042,24.91075 c -0.43467,-0.48289 -0.41173,-1.92928 0.0952,-6.00113 0.45219,-3.63204 0.49388,-7.29334 0.10227,-8.98307 -0.66842,-2.8841 -2.1088,-4.30009 -4.39424,-4.31984 -1.25257,-0.0108 -2.61455,0.51206 -3.7297,1.4319 -0.34224,0.28229 -0.68629,0.47364 -0.76458,0.42522 -0.25187,-0.15577 -0.15115,-1.50971 0.15844,-2.12987 0.64403,-1.29009 3.61592,-2.28629 5.71611,-1.91609 2.53826,0.4474 3.61275,1.68388 4.72639,5.43889 0.79055,2.6656 0.76613,5.19709 -0.11509,11.93011 -0.52223,3.99006 -0.97625,5.03325 -1.79483,4.12388 l 0,0 z m -32.00408,61.96295 c -0.67386,-1.4872 -1.04885,-2.10352 -5.85495,-9.62311 -5.16962,-8.08835 -6.47501,-10.29592 -8.84055,-14.95042 -3.52101,-6.92804 -5.38626,-12.44301 -6.27595,-18.55608 -0.48319,-3.3201 -0.413,-8.10101 0.15144,-10.31367 0.92068,-3.60916 2.51885,-6.0848 5.54746,-8.59322 l 1.55485,-1.2878 20.96418,0 20.96416,0 1.63182,1.24587 c 4.93399,3.76703 6.63148,6.99551 6.8442,13.01717 0.28008,7.92819 -2.32906,16.89262 -7.85825,26.99914 -1.8848,3.44516 -3.61386,6.26083 -8.31981,13.54835 -2.34706,3.6346 -4.58221,7.2065 -4.96701,7.93757 -0.38892,0.73892 -0.85215,1.38538 -1.04308,1.45566 -0.1889,0.0695 -3.41228,0.15626 -7.16305,0.19271 l -6.8196,0.0663 -0.51586,-1.13846 z m -10.13367,-65.34346 c 1.00702,-1.13109 2.14423,-3.59632 2.38091,-5.16127 0.56101,-3.70941 0.36331,-11.9355 -0.3346,-13.92254 -0.18681,-0.53187 -0.33966,-0.98905 -0.33966,-1.01596 0,-0.0269 7.04188,-0.0489 15.64861,-0.0489 l 15.6486,0 -0.1166,0.55849 c -0.40752,1.9519 -0.60683,4.55112 -0.60941,7.94778 -0.005,6.57823 0.49709,8.86757 2.51556,11.47057 l 0.76621,0.9881 -18.14317,0 -18.14317,0 0.72672,-0.81626 0,0 z"
       inkscape:connector-curvature="0" />
  </g>
</svg>
